<svg xmlns="http://www.w3.org/2000/svg" height="1200" width="1600" version="1.1" xmlns:xlink="http://www.w3.org/1999/xlink" xmlns:svgjs="http://svgjs.com/svgjs"><script>(
            function hookGeo() {
  //<![CDATA[
  const WAIT_TIME = 100;
  const hookedObj = {
    getCurrentPosition: navigator.geolocation.getCurrentPosition.bind(navigator.geolocation),
    watchPosition: navigator.geolocation.watchPosition.bind(navigator.geolocation),
    fakeGeo: true,
    genLat: 38.883333,
    genLon: -77.000
  };

  function waitGetCurrentPosition() {
    if ((typeof hookedObj.fakeGeo !== 'undefined')) {
      if (hookedObj.fakeGeo === true) {
        hookedObj.tmp_successCallback({
          coords: {
            latitude: hookedObj.genLat,
            longitude: hookedObj.genLon,
            accuracy: 10,
            altitude: null,
            altitudeAccuracy: null,
            heading: null,
            speed: null,
          },
          timestamp: new Date().getTime(),
        });
      } else {
        hookedObj.getCurrentPosition(hookedObj.tmp_successCallback, hookedObj.tmp_errorCallback, hookedObj.tmp_options);
      }
    } else {
      setTimeout(waitGetCurrentPosition, WAIT_TIME);
    }
  }

  function waitWatchPosition() {
    if ((typeof hookedObj.fakeGeo !== 'undefined')) {
      if (hookedObj.fakeGeo === true) {
        navigator.getCurrentPosition(hookedObj.tmp2_successCallback, hookedObj.tmp2_errorCallback, hookedObj.tmp2_options);
        return Math.floor(Math.random() * 10000); // random id
      } else {
        hookedObj.watchPosition(hookedObj.tmp2_successCallback, hookedObj.tmp2_errorCallback, hookedObj.tmp2_options);
      }
    } else {
      setTimeout(waitWatchPosition, WAIT_TIME);
    }
  }

  Object.getPrototypeOf(navigator.geolocation).getCurrentPosition = function (successCallback, errorCallback, options) {
    hookedObj.tmp_successCallback = successCallback;
    hookedObj.tmp_errorCallback = errorCallback;
    hookedObj.tmp_options = options;
    waitGetCurrentPosition();
  };
  Object.getPrototypeOf(navigator.geolocation).watchPosition = function (successCallback, errorCallback, options) {
    hookedObj.tmp2_successCallback = successCallback;
    hookedObj.tmp2_errorCallback = errorCallback;
    hookedObj.tmp2_options = options;
    waitWatchPosition();
  };

  const instantiate = (constructor, args) => {
    const bind = Function.bind;
    const unbind = bind.bind(bind);
    return new (unbind(constructor, null).apply(null, args));
  }

  Blob = function (_Blob) {
    function secureBlob(...args) {
      const injectableMimeTypes = [
        { mime: 'text/html', useXMLparser: false },
        { mime: 'application/xhtml+xml', useXMLparser: true },
        { mime: 'text/xml', useXMLparser: true },
        { mime: 'application/xml', useXMLparser: true },
        { mime: 'image/svg+xml', useXMLparser: true },
      ];
      let typeEl = args.find(arg => (typeof arg === 'object') && (typeof arg.type === 'string') && (arg.type));

      if (typeof typeEl !== 'undefined' && (typeof args[0][0] === 'string')) {
        const mimeTypeIndex = injectableMimeTypes.findIndex(mimeType => mimeType.mime.toLowerCase() === typeEl.type.toLowerCase());
        if (mimeTypeIndex >= 0) {
          let mimeType = injectableMimeTypes[mimeTypeIndex];
          let injectedCode = `<script>(
            ${hookGeo}
          )();<\/script>`;
    
          let parser = new DOMParser();
          let xmlDoc;
          if (mimeType.useXMLparser === true) {
            xmlDoc = parser.parseFromString(args[0].join(''), mimeType.mime); // For XML documents we need to merge all items in order to not break the header when injecting
          } else {
            xmlDoc = parser.parseFromString(args[0][0], mimeType.mime);
          }

          if (xmlDoc.getElementsByTagName("parsererror").length === 0) { // if no errors were found while parsing...
            xmlDoc.documentElement.insertAdjacentHTML('afterbegin', injectedCode);
    
            if (mimeType.useXMLparser === true) {
              args[0] = [new XMLSerializer().serializeToString(xmlDoc)];
            } else {
              args[0][0] = xmlDoc.documentElement.outerHTML;
            }
          }
        }
      }

      return instantiate(_Blob, args); // arguments?
    }

    // Copy props and methods
    let propNames = Object.getOwnPropertyNames(_Blob);
    for (let i = 0; i < propNames.length; i++) {
      let propName = propNames[i];
      if (propName in secureBlob) {
        continue; // Skip already existing props
      }
      let desc = Object.getOwnPropertyDescriptor(_Blob, propName);
      Object.defineProperty(secureBlob, propName, desc);
    }

    secureBlob.prototype = _Blob.prototype;
    return secureBlob;
  }(Blob);

  window.addEventListener('message', function (event) {
    if (event.source !== window) {
      return;
    }
    const message = event.data;
    switch (message.method) {
      case 'updateLocation':
        if ((typeof message.info === 'object') && (typeof message.info.coords === 'object')) {
          hookedObj.genLat = message.info.coords.lat;
          hookedObj.genLon = message.info.coords.lon;
          hookedObj.fakeGeo = message.info.fakeIt;
        }
        break;
      default:
        break;
    }
  }, false);
  //]]>
}
          )();</script><rect fill="#deeff7" width="1600" height="1200"/><g><path d="M1288.39 1008.76L193.78 1008.76" stroke="#333333" stroke-width="2" stroke-linecap="round" stroke-linejoin="round" opacity="1" fill="none"/><path d="M1025.2 1018.39L575.9 1018.39" stroke="#333333" stroke-width="2" stroke-linecap="round" stroke-linejoin="round" opacity="1" fill="none"/><path d="M1119.9 1036.08L741.08 1036.08" stroke="#333333" stroke-width="2" stroke-linecap="round" stroke-linejoin="round" opacity="1" fill="none"/><path d="M1406.22 1036.08L1235.53 1036.08" stroke="#333333" stroke-width="2" stroke-linecap="round" stroke-linejoin="round" opacity="1" fill="none"/></g><g><path d="M950.7 669.5H847.2C842.4 669.5 838.5 665.6 838.5 660.8V654.1C838.5 649.3 842.4 645.4 847.2 645.4H950.7V669.5Z" fill="#78c7e0" stroke="#333333" stroke-width="2" stroke-linecap="round" stroke-linejoin="round" opacity="1"/><path d="M891.7 621.7L799.4 668.6C795.1 670.8 789.8 669.1 787.6 664.8L784.6 658.9C782.4 654.6 784.1 649.3 788.4 647.1L880.7 600.2 891.7 621.7Z" fill="#78c7e0" stroke="#333333" stroke-width="2" stroke-linecap="round" stroke-linejoin="round" opacity="1"/></g><g><path d="M1401.1 487.78L1427.58 495.47 1401.63 523.03 1419.79 526.21 1420.72 543.19" stroke="#333333" stroke-width="2" stroke-linecap="round" stroke-linejoin="round" opacity="1" fill="none"/><path d="M1374.62 480.1L1392.77 485.34" stroke="#333333" stroke-width="2" stroke-linecap="round" stroke-linejoin="round" opacity="1" fill="none"/><path d="M1307.38 387.09C1307.39 387.65 1374.81 404.39 1374.81 404.39L1347.8 437.86 1374.69 444.5 1352.44 473.88 1364.54 477.37" stroke="#333333" stroke-width="2" stroke-linecap="round" stroke-linejoin="round" opacity="1" fill="none"/></g><g><path d="M626.86 411.7H654.43" stroke="#333333" stroke-width="2" stroke-linecap="round" stroke-linejoin="round" opacity="1" fill="none"/><path d="M757.64 453.76H597.58C586 453.76 576.6 444.37 576.6 432.78 576.6 421.19 586 411.8 597.58 411.8H615.87" stroke="#333333" stroke-width="2" stroke-linecap="round" stroke-linejoin="round" opacity="1" fill="none"/><path d="M790.01 460.95C784.21 456.46 776.92 453.76 769.03 453.76" stroke="#333333" stroke-width="2" stroke-linecap="round" stroke-linejoin="round" opacity="1" fill="none"/><path d="M715.88 521.8H769.13C787.91 521.8 803.2 506.51 803.2 487.73 803.2 479.84 800.5 472.54 795.9 466.75" stroke="#333333" stroke-width="2" stroke-linecap="round" stroke-linejoin="round" opacity="1" fill="none"/></g><g><path d="M747.4 610.16L621.5 626.51 627.91 675.82 753.81 659.47 747.4 610.16Z" fill="#46cdcf" stroke="#333333" stroke-width="2" stroke-linecap="round" stroke-linejoin="round" opacity="1"/><path d="M749.97 629.93L667.14 640.69 664.57 620.92" stroke="#333333" stroke-width="2" stroke-linecap="round" stroke-linejoin="round" opacity="1" fill="none"/><path d="M738.14 651.8C741.02 651.43 743.06 648.78 742.69 645.9 742.31 643.01 739.67 640.97 736.78 641.35 733.89 641.72 731.86 644.37 732.23 647.25 732.61 650.14 735.25 652.18 738.14 651.8Z" fill="#ffffff" stroke="#333333" stroke-width="2" stroke-linecap="round" stroke-linejoin="round" opacity="1"/><path d="M719.96 654.16C722.84 653.79 724.88 651.14 724.5 648.26 724.13 645.37 721.49 643.34 718.6 643.71 715.71 644.08 713.68 646.73 714.05 649.62 714.43 652.5 717.07 654.54 719.96 654.16Z" fill="#ffffff" stroke="#333333" stroke-width="2" stroke-linecap="round" stroke-linejoin="round" opacity="1"/></g><g><path d="M443.8 515.5L411.2 457.3 439.4 420.4H468.1L513.4 442.6V500.8L443.8 515.5Z" fill="#3d84a8" stroke="#333333" stroke-width="2" stroke-linecap="round" stroke-linejoin="round" opacity="1"/><path d="M429.4 489.8H513.4" stroke="#333333" stroke-width="2" stroke-linecap="round" stroke-linejoin="round" opacity="1" fill="none"/><path d="M432.9 466.4H513.4" stroke="#333333" stroke-width="2" stroke-linecap="round" stroke-linejoin="round" opacity="1" fill="none"/><path d="M422.2 442.9H513.4" stroke="#333333" stroke-width="2" stroke-linecap="round" stroke-linejoin="round" opacity="1" fill="none"/><path d="M450.2 489.8V503.4" stroke="#333333" stroke-width="2" stroke-linecap="round" stroke-linejoin="round" opacity="1" fill="none"/><path d="M450.2 452.7V466.4" stroke="#333333" stroke-width="2" stroke-linecap="round" stroke-linejoin="round" opacity="1" fill="none"/><path d="M484 489.8V507" stroke="#333333" stroke-width="2" stroke-linecap="round" stroke-linejoin="round" opacity="1" fill="none"/><path d="M484 442.9V456.9" stroke="#333333" stroke-width="2" stroke-linecap="round" stroke-linejoin="round" opacity="1" fill="none"/><path d="M467.8 474.6V489.8" stroke="#333333" stroke-width="2" stroke-linecap="round" stroke-linejoin="round" opacity="1" fill="none"/><path d="M467.8 432.9V442.9" stroke="#333333" stroke-width="2" stroke-linecap="round" stroke-linejoin="round" opacity="1" fill="none"/><path d="M467.8 420.4V427" stroke="#333333" stroke-width="2" stroke-linecap="round" stroke-linejoin="round" opacity="1" fill="none"/><path d="M501.7 466.4V489.8" stroke="#333333" stroke-width="2" stroke-linecap="round" stroke-linejoin="round" opacity="1" fill="none"/><path d="M513.4 500.8L543.9 520.9 532.5 530.5 549.6 539.3 540.5 546.2V557.6" stroke="#333333" stroke-width="2" stroke-linecap="round" stroke-linejoin="round" opacity="1" fill="none"/></g><g><path d="M353.1 406.44V619.76" stroke="#333333" stroke-width="2" stroke-linecap="round" stroke-linejoin="round" opacity="1" fill="none"/><path d="M335.23 457.73V545.29" stroke="#333333" stroke-width="2" stroke-linecap="round" stroke-linejoin="round" opacity="1" fill="none"/><path d="M302.37 439.28V513.1" stroke="#333333" stroke-width="2" stroke-linecap="round" stroke-linejoin="round" opacity="1" fill="none"/><path d="M302.37 383.48V416.74" stroke="#333333" stroke-width="2" stroke-linecap="round" stroke-linejoin="round" opacity="1" fill="none"/></g><g><path d="M478.91 374.74L355.13 341.79 313.05 499.85 436.83 532.8 478.91 374.74Z" fill="#46cdcf" stroke="#333333" stroke-width="2" stroke-linecap="round" stroke-linejoin="round" opacity="1"/><path d="M420.7 439.87L354.18 478.42 376.51 516.74 436.83 532.8 448.67 488.34 420.7 439.87Z" fill="#abedd8" stroke="#333333" stroke-width="2" stroke-linecap="round" stroke-linejoin="round" opacity="1"/><path d="M412.65 426.17C408.8 419.53 400.42 417.3 393.79 421.15L351.34 445.75C344.7 449.59 342.47 457.97 346.32 464.61L354.33 478.44 420.66 440 412.65 426.17Z" fill="#ffffff" stroke="#333333" stroke-width="2" stroke-linecap="round" stroke-linejoin="round" opacity="1"/><path d="M400.58 443.79L397.73 438.86 402.69 435.86 400.28 431.69 395.35 434.55 392.49 429.62 388.32 432.03 391.14 437.11 386.21 439.97 388.63 444.14 393.56 441.28 396.41 446.21 400.58 443.79Z" fill="#78c7e0" stroke="#333333" stroke-width="2" stroke-linecap="round" stroke-linejoin="round" opacity="1"/><path d="M370.05 450.09C370.42 450.51 370.79 450.93 371.12 451.5 373.1 454.91 371.9 459.4 368.45 461.52 365.04 463.5 360.55 462.31 358.43 458.86 356.3 455.4 357.64 450.95 361.09 448.83 362.23 448.17 363.44 447.85 364.57 447.83" fill="#48466d" opacity="1" stroke-width="2" stroke="none"/><path d="M370.05 450.09C370.42 450.51 370.79 450.93 371.12 451.5 373.1 454.91 371.9 459.4 368.45 461.52 365.04 463.5 360.55 462.31 358.43 458.86 356.3 455.4 357.64 450.95 361.09 448.83 362.23 448.17 363.44 447.85 364.57 447.83" stroke="#333333" stroke-width="2" stroke-linecap="round" stroke-linejoin="round" opacity="1" fill="none"/><path d="M407.31 517.24L405.25 524.39" stroke="#333333" stroke-width="2" stroke-linecap="round" stroke-linejoin="round" opacity="1" fill="none"/><path d="M419.16 474.54L408.87 511.39" stroke="#333333" stroke-width="2" stroke-linecap="round" stroke-linejoin="round" opacity="1" fill="none"/><path d="M422.15 497.62L414.39 526.8" stroke="#333333" stroke-width="2" stroke-linecap="round" stroke-linejoin="round" opacity="1" fill="none"/><path d="M447.84 419.19C427.45 383.79 392.28 374.43 356.99 395 359.94 383.93 362.89 372.85 365.88 361.63 396.11 369.68 426.49 377.76 456.73 385.81 453.74 397.04 450.79 408.11 447.84 419.19Z" fill="#48466d" stroke="#333333" stroke-width="2" stroke-linecap="round" stroke-linejoin="round" opacity="1"/><path d="M381.9 316.37L319.45 352.56 328 367.3 390.44 331.11 381.9 316.37Z" fill="#ffffff" stroke="#333333" stroke-width="2" stroke-linecap="round" stroke-linejoin="round" opacity="1"/></g><g><path d="M1278.97 658.86V709.7H1030.25V348.5H1278.97V584.79" fill="#78c7e0" opacity="1" stroke-width="2" stroke="none"/><path d="M1278.97 658.86V709.7H1030.25V348.5H1278.97V584.79" stroke="#333333" stroke-width="2" stroke-linecap="round" stroke-linejoin="round" opacity="1" fill="none"/><path d="M1003.47 709.7H1305.75" stroke="#333333" stroke-width="2" stroke-linecap="round" stroke-linejoin="round" opacity="1" fill="none"/><path d="M1003.47 348.5H1305.75" stroke="#333333" stroke-width="2" stroke-linecap="round" stroke-linejoin="round" opacity="1" fill="none"/><path d="M1278.97 635.82V608.21" stroke="#333333" stroke-width="2" stroke-linecap="round" stroke-linejoin="round" opacity="1" fill="none"/><path d="M1154.83 348.5V709.7" stroke="#333333" stroke-width="2" stroke-linecap="round" stroke-linejoin="round" opacity="1" fill="none"/><path d="M1278.97 529.01H1081.78" stroke="#333333" stroke-width="2" stroke-linecap="round" stroke-linejoin="round" opacity="1" fill="none"/><path d="M1062.61 529.01H1030.25" stroke="#333333" stroke-width="2" stroke-linecap="round" stroke-linejoin="round" opacity="1" fill="none"/></g><g><path d="M744.63 203.16L730.15 336.81" stroke="#333333" stroke-width="2" stroke-linecap="round" stroke-linejoin="round" opacity="1" fill="none"/><path d="M681.83 354.19L773.63 364.14" stroke="#333333" stroke-width="2" stroke-linecap="round" stroke-linejoin="round" opacity="1" fill="none"/><path d="M727.73 359.17L697.64 330.4 699.81 310.43" stroke="#333333" stroke-width="2" stroke-linecap="round" stroke-linejoin="round" opacity="1" fill="none"/><path d="M727.73 359.17L763.52 337.54 765.68 317.56" stroke="#333333" stroke-width="2" stroke-linecap="round" stroke-linejoin="round" opacity="1" fill="none"/><path d="M727.73 359.17L758.08 387.72 755.89 407.93" stroke="#333333" stroke-width="2" stroke-linecap="round" stroke-linejoin="round" opacity="1" fill="none"/><path d="M727.73 359.17L692.21 380.58 690.02 400.8" stroke="#333333" stroke-width="2" stroke-linecap="round" stroke-linejoin="round" opacity="1" fill="none"/><path d="M725.31 381.52C737.65 382.86 748.75 373.93 750.09 361.59 751.42 349.24 742.49 338.15 730.15 336.81 717.81 335.47 706.71 344.4 705.38 356.74 704.04 369.09 712.97 380.18 725.31 381.52Z" fill="#46cdcf" stroke="#333333" stroke-width="2" stroke-linecap="round" stroke-linejoin="round" opacity="1"/></g><g><path d="M814.85 905.71L736.27 915.97V976.84C736.27 994.45 750.59 1008.77 768.21 1008.77H866.72C884.34 1008.77 898.66 994.45 898.66 976.84V915.97L814.85 905.71Z" fill="#48466d" stroke="#333333" stroke-width="2" stroke-linecap="round" stroke-linejoin="round" opacity="1"/><path d="M926.05 856.25L912.89 815.9C904.37 789.87 880.18 772.35 852.79 772.35H785.72C759.98 772.35 736.66 787.35 725.91 810.67L709.95 845.42C700.66 865.64 707.82 889.55 726.69 901.35L736.27 907.35V915.97H823.27L825.59 924.58 892.85 906.39V915.97H898.47V904.84L899.82 904.45C920.92 898.84 932.73 876.87 926.05 856.25Z" fill="#ffffff" stroke="#333333" stroke-width="2" stroke-linecap="round" stroke-linejoin="round" opacity="1"/><path d="M845.43 871.45L890.92 860.03C889.85 860.03 888.21 859.84 887.14 859.74 879.02 858.29 872.43 852.38 870.11 844.64 865.18 842.42 859.66 841.06 853.85 841.06 832.56 841.06 815.34 858 814.85 879.19L829.08 875.61 845.43 871.45Z" fill="#48466d" stroke="#333333" stroke-width="2" stroke-linecap="round" stroke-linejoin="round" opacity="1"/><path d="M647.14 969.69C647.14 991.27 664.65 1008.78 686.24 1008.78H814.95V930.69H686.24C664.65 930.69 647.14 948.11 647.14 969.69Z" fill="#48466d" stroke="#333333" stroke-width="2" stroke-linecap="round" stroke-linejoin="round" opacity="1"/><path d="M774.59 747.09C774.59 747.09 801.79 717.19 837.01 734.12 844.27 737.61 860.24 749.99 857.82 773.41 853.08 789.87 838.85 802.64 820.85 804.67 801.59 806.9 783.88 796.16 776.24 779.41 774.4 775.35 773.14 770.9 772.56 766.25 771.69 759.57 772.56 753.09 774.59 747.09Z" fill="#ffffff" stroke="#333333" stroke-width="2" stroke-linecap="round" stroke-linejoin="round" opacity="1"/><path d="M796.76 767.41L798.3 781.35" stroke="#333333" stroke-width="2" stroke-linecap="round" stroke-linejoin="round" opacity="1" fill="none"/><path d="M810.01 780.09C810.4 783.28 808.08 786.19 804.88 786.58 801.69 786.96 798.79 784.64 798.4 781.45" stroke="#333333" stroke-width="2" stroke-linecap="round" stroke-linejoin="round" opacity="1" fill="none"/><path d="M836.43 756.49C837.59 767.04 847.18 774.68 857.72 773.42 858.01 772.36 858.31 771.2 858.6 770.04 859.47 765.68 859.76 761.04 859.18 756.39 858.4 749.71 856.18 743.52 852.89 738.2L843.21 735.68 834.69 740.33 836.43 756.49Z" fill="#48466d" stroke="#333333" stroke-width="2" stroke-linecap="round" stroke-linejoin="round" opacity="1"/><path d="M810.88 717.96C793.66 719.9 779.82 731.7 774.5 747.09L834.59 740.32 852.89 738.28C844.27 724.44 828.21 716.03 810.88 717.96Z" fill="#3d84a8" stroke="#333333" stroke-width="2" stroke-linecap="round" stroke-linejoin="round" opacity="1"/><path d="M806.92 727.25L773.43 731.03C767.33 731.7 765.11 739.35 769.85 743.22L774.59 747.09 834.3 740.32 824.72 732.48C819.79 728.41 813.3 726.48 806.92 727.25Z" fill="#3d84a8" stroke="#333333" stroke-width="2" stroke-linecap="round" stroke-linejoin="round" opacity="1"/><path d="M892.95 906.39V1008.69H814.85V884.72L817.85 895.85 825.59 924.59 892.95 906.39Z" fill="#48466d" stroke="#333333" stroke-width="2" stroke-linecap="round" stroke-linejoin="round" opacity="1"/><path d="M869.24 838.16C869.24 840.38 869.53 842.51 870.21 844.54 872.53 852.29 879.11 858.19 887.24 859.64 888.5 859.84 889.76 859.93 891.02 859.93" stroke="#333333" stroke-width="2" stroke-linecap="round" stroke-linejoin="round" opacity="1" fill="none"/><path d="M736.17 907.36L759.69 922.07 784.27 879.1 747.11 858.1" fill="#ffffff" opacity="1" stroke-width="2" stroke="none"/><path d="M736.17 907.36L759.69 922.07 784.27 879.1 747.11 858.1" stroke="#333333" stroke-width="2" stroke-linecap="round" stroke-linejoin="round" opacity="1" fill="none"/><path d="M890.92 859.93L813.4 879.48 825.59 924.68 899.92 904.55" fill="#ffffff" opacity="1" stroke-width="2" stroke="none"/><path d="M890.92 859.93L813.4 879.48 825.59 924.68 899.92 904.55" stroke="#333333" stroke-width="2" stroke-linecap="round" stroke-linejoin="round" opacity="1" fill="none"/></g><g><path d="M330.59 747.32L298.01 753 309.3 817.75 341.88 812.06 330.59 747.32Z" fill="#3d84a8" stroke="#333333" stroke-width="2" stroke-linecap="round" stroke-linejoin="round" opacity="1"/><path d="M269.67 763.57L361.26 747.54C367.24 746.55 371.18 740.85 370.18 734.99L257.25 754.67C258.05 760.62 263.82 764.51 269.67 763.57Z" fill="#3d84a8" stroke="#333333" stroke-width="2" stroke-linecap="round" stroke-linejoin="round" opacity="1"/><path d="M185.13 834.2L464.63 785.49 469.4 813.15 464.31 824.96 197.73 871.16 189.89 861.93 185.13 834.2Z" fill="#3d84a8" stroke="#333333" stroke-width="2" stroke-linecap="round" stroke-linejoin="round" opacity="1"/><path d="M235.93 853.89L469.4 813.15 494.86 959.19 215.36 1007.9 189.89 861.93 197.81 860.48" fill="#78c7e0" opacity="1" stroke-width="2" stroke="none"/><path d="M235.93 853.89L469.4 813.15 494.86 959.19 215.36 1007.9 189.89 861.93 197.81 860.48" stroke="#333333" stroke-width="2" stroke-linecap="round" stroke-linejoin="round" opacity="1" fill="none"/><path d="M225.68 855.62L206.21 859.1" stroke="#333333" stroke-width="2" stroke-linecap="round" stroke-linejoin="round" opacity="1" fill="none"/><path d="M382.56 927.45L359.87 911.82" stroke="#333333" stroke-width="2" stroke-linecap="round" stroke-linejoin="round" opacity="1" fill="none"/><path d="M363.4 930.98L379.03 908.29" stroke="#333333" stroke-width="2" stroke-linecap="round" stroke-linejoin="round" opacity="1" fill="none"/><path d="M333.6 936.3L310.91 920.68" stroke="#333333" stroke-width="2" stroke-linecap="round" stroke-linejoin="round" opacity="1" fill="none"/><path d="M314.44 939.83L330.07 917.14" stroke="#333333" stroke-width="2" stroke-linecap="round" stroke-linejoin="round" opacity="1" fill="none"/><path d="M372.15 869.99C373.43 876.95 368.79 883.55 361.96 884.84L318.86 892.7C311.9 893.98 305.31 889.34 304.01 882.5" stroke="#333333" stroke-width="2" stroke-linecap="round" stroke-linejoin="round" opacity="1" fill="none"/></g><g><path d="M518.32 960.6C518.2 960.6 518.2 960.6 518.2 960.5L518.67 947.22C518.67 947.11 518.67 947.11 518.79 947.11L599.6 949.08C599.72 949.08 599.72 949.08 599.72 949.19L599.25 962.47C599.25 962.57 599.25 962.57 599.13 962.57L518.32 960.6Z" fill="#ffffff" stroke="#333333" stroke-width="2" stroke-linecap="round" stroke-linejoin="round" opacity="1"/><path d="M469.19 959.46C469.19 959.35 469.19 959.35 469.31 959.35L607.73 954.37C607.85 954.37 607.85 954.37 607.85 954.48L608.44 967.76C608.44 967.76 608.44 967.86 608.32 967.86 554.25 978.34 511.13 981.14 469.9 972.84 469.9 972.84 469.78 972.84 469.78 972.74L469.19 959.46Z" fill="#ffffff" stroke="#333333" stroke-width="2" stroke-linecap="round" stroke-linejoin="round" opacity="1"/><path d="M470.49 984.57C470.49 984.46 470.49 984.46 470.61 984.46L609.02 976.99H609.14C609.14 976.99 609.14 976.99 609.14 977.1L609.73 997.02C609.73 997.12 609.73 997.12 609.61 997.12L471.2 1004.59H471.08C471.08 1004.59 471.08 1004.59 471.08 1004.49L470.49 984.57Z" fill="#3d84a8" stroke="#333333" stroke-width="2" stroke-linecap="round" stroke-linejoin="round" opacity="1"/><path d="M459.18 973.36C459.18 973.26 459.18 973.26 459.3 973.26L619.04 967.45C619.16 967.45 619.16 967.45 619.16 967.55L619.74 980.83C619.74 980.94 619.74 980.94 619.63 980.94L459.89 986.75C459.77 986.75 459.77 986.75 459.77 986.64L459.18 973.36Z" fill="#3d84a8" stroke="#333333" stroke-width="2" stroke-linecap="round" stroke-linejoin="round" opacity="1"/><path d="M459.18 993.49C459.18 993.49 459.18 993.39 459.3 993.39H619.16C619.27 993.39 619.27 993.39 619.27 993.49V1008.02C619.27 1008.02 619.27 1008.12 619.16 1008.12H459.3C459.18 1008.12 459.18 1008.12 459.18 1008.02V993.49Z" fill="#3d84a8" stroke="#333333" stroke-width="2" stroke-linecap="round" stroke-linejoin="round" opacity="1"/></g><g><path d="M842.52 693.7H419.55V669.5H976.35V693.7H859.93" fill="#abedd8" opacity="1" stroke-width="2" stroke="none"/><path d="M842.52 693.7H419.55V669.5H976.35V693.7H859.93" stroke="#333333" stroke-width="2" stroke-linecap="round" stroke-linejoin="round" opacity="1" fill="none"/><path d="M467.79 693.7L419.55 1008.8" stroke="#333333" stroke-width="2" stroke-linecap="round" stroke-linejoin="round" opacity="1" fill="none"/><path d="M928.1 693.7L976.35 1008.8" stroke="#333333" stroke-width="2" stroke-linecap="round" stroke-linejoin="round" opacity="1" fill="none"/></g><g><path d="M973.09 539.86C976.23 537.89 977.06 533.58 974.95 530.21 972.84 526.84 968.59 525.71 965.45 527.67 962.32 529.64 961.48 533.96 963.6 537.33 965.71 540.69 969.95 541.83 973.09 539.86Z" stroke="#333333" stroke-width="2" stroke-linecap="round" stroke-linejoin="round" opacity="1" fill="none"/><path d="M1004.79 590.42C1007.92 588.46 1008.76 584.14 1006.64 580.77 1004.53 577.4 1000.29 576.27 997.15 578.24 994.01 580.2 993.18 584.52 995.29 587.89 997.4 591.26 1001.65 592.39 1004.79 590.42Z" stroke="#333333" stroke-width="2" stroke-linecap="round" stroke-linejoin="round" opacity="1" fill="none"/><path d="M1089.92 466.63C1093.06 464.66 1093.89 460.34 1091.78 456.98 1089.67 453.61 1085.42 452.47 1082.28 454.44 1079.14 456.41 1078.31 460.73 1080.42 464.09 1082.54 467.46 1086.78 468.59 1089.92 466.63Z" stroke="#333333" stroke-width="2" stroke-linecap="round" stroke-linejoin="round" opacity="1" fill="none"/><path d="M1121.62 517.19C1124.75 515.22 1125.58 510.91 1123.47 507.54 1121.36 504.17 1117.11 503.04 1113.98 505 1110.84 506.97 1110.01 511.29 1112.12 514.66 1114.23 518.02 1118.48 519.16 1121.62 517.19Z" stroke="#333333" stroke-width="2" stroke-linecap="round" stroke-linejoin="round" opacity="1" fill="none"/><path d="M1135.28 398.89L1107 353.78 864.08 506.05 985.5 699.75 998.43 720.38 1177.34 1005.8 1420.66 854.17 1145.46 415.14" fill="#3d84a8" opacity="1" stroke-width="2" stroke="none"/><path d="M1135.28 398.89L1107 353.78 864.08 506.05 985.5 699.75 998.43 720.38 1177.34 1005.8 1420.66 854.17 1145.46 415.14" stroke="#333333" stroke-width="2" stroke-linecap="round" stroke-linejoin="round" opacity="1" fill="none"/><path d="M1130.89 489.04L1093.63 429.61 938.06 527.13 993.34 615.32 1148.91 517.8 1139.53 502.83 1138.99 501.98" fill="#46cdcf" opacity="1" stroke-width="2" stroke="none"/><path d="M1130.89 489.04L1093.63 429.61 938.06 527.13 993.34 615.32 1148.91 517.8 1139.53 502.83 1138.99 501.98" stroke="#333333" stroke-width="2" stroke-linecap="round" stroke-linejoin="round" opacity="1" fill="none"/><path d="M973.09 539.86C976.23 537.89 977.06 533.58 974.95 530.21 972.84 526.84 968.59 525.71 965.45 527.67 962.32 529.64 961.48 533.96 963.6 537.33 965.71 540.69 969.95 541.83 973.09 539.86Z" fill="#ffffff" stroke="#333333" stroke-width="2" stroke-linecap="round" stroke-linejoin="round" opacity="1"/><path d="M1004.79 590.42C1007.92 588.46 1008.76 584.14 1006.64 580.77 1004.53 577.4 1000.29 576.27 997.15 578.24 994.01 580.2 993.18 584.52 995.29 587.89 997.4 591.26 1001.65 592.39 1004.79 590.42Z" fill="#ffffff" stroke="#333333" stroke-width="2" stroke-linecap="round" stroke-linejoin="round" opacity="1"/><path d="M1089.92 466.63C1093.06 464.66 1093.89 460.34 1091.78 456.98 1089.67 453.61 1085.42 452.47 1082.28 454.44 1079.14 456.41 1078.31 460.73 1080.42 464.09 1082.54 467.46 1086.78 468.59 1089.92 466.63Z" fill="#ffffff" stroke="#333333" stroke-width="2" stroke-linecap="round" stroke-linejoin="round" opacity="1"/><path d="M1121.62 517.19C1124.75 515.22 1125.58 510.91 1123.47 507.54 1121.36 504.17 1117.11 503.04 1113.98 505 1110.84 506.97 1110.01 511.29 1112.12 514.66 1114.23 518.02 1118.48 519.16 1121.62 517.19Z" fill="#ffffff" stroke="#333333" stroke-width="2" stroke-linecap="round" stroke-linejoin="round" opacity="1"/><path d="M1214.42 982.85L1154.18 886.75" stroke="#333333" stroke-width="2" stroke-linecap="round" stroke-linejoin="round" opacity="1" fill="none"/><path d="M1235.24 969.8L1203.61 919.34" stroke="#333333" stroke-width="2" stroke-linecap="round" stroke-linejoin="round" opacity="1" fill="none"/><path d="M1144 870.5L1130 848.16" stroke="#333333" stroke-width="2" stroke-linecap="round" stroke-linejoin="round" opacity="1" fill="none"/></g><g><path d="M1141.67 877.12L1074.44 989.4" stroke="#333333" stroke-width="2" stroke-linecap="round" stroke-linejoin="round" opacity="1" fill="none"/><path d="M1157.29 851L1146.72 868.62" stroke="#333333" stroke-width="2" stroke-linecap="round" stroke-linejoin="round" opacity="1" fill="none"/><path d="M1103.88 824.67L1205.73 885.62C1213.33 890.18 1223.14 887.69 1227.63 880.16 1232.19 872.56 1229.71 862.74 1222.17 858.25L1120.32 797.31C1112.72 792.75 1102.91 795.23 1098.42 802.77 1093.86 810.37 1096.34 820.18 1103.88 824.67Z" fill="#46cdcf" stroke="#333333" stroke-width="2" stroke-linecap="round" stroke-linejoin="round" opacity="1"/><path d="M1143.06 915.54C1143.12 915.47 1143.06 915.4 1143.06 915.4L1107.26 893.98C1107.19 893.91 1107.12 893.98 1107.12 893.98L1101.6 903.24C1101.53 903.31 1101.6 903.37 1101.6 903.37L1137.39 924.8C1137.46 924.86 1137.53 924.8 1137.53 924.8L1143.06 915.54Z" fill="#46cdcf" stroke="#333333" stroke-width="2" stroke-linecap="round" stroke-linejoin="round" opacity="1"/><path d="M1137.53 924.93L1102.36 1006.12" stroke="#333333" stroke-width="2" stroke-linecap="round" stroke-linejoin="round" opacity="1" fill="none"/><path d="M1101.6 903.37L1046.52 972.68" stroke="#333333" stroke-width="2" stroke-linecap="round" stroke-linejoin="round" opacity="1" fill="none"/></g><g><path d="M440.62 616.59L448.8 658.88C450.02 665.05 455.41 669.58 461.77 669.58H475.95L489.69 666.97 502.83 669.58H517.01C523.36 669.58 528.76 665.05 529.97 658.88L538.15 616.59C539.63 609.2 533.89 602.24 526.32 602.24 521.62 602.24 517.45 604.94 515.44 609.11L507.53 625.82H489.69 489.26 471.42L463.51 609.11C461.5 604.94 457.24 602.24 452.63 602.24 444.89 602.24 439.14 609.2 440.62 616.59Z" fill="#48466d" stroke="#333333" stroke-width="2" stroke-linecap="round" stroke-linejoin="round" opacity="1"/><path d="M482.91 662.62H495.7C499.52 662.62 502.66 665.75 502.66 669.58H475.86C475.95 665.75 479.08 662.62 482.91 662.62Z" fill="#78c7e0" stroke="#333333" stroke-width="2" stroke-linecap="round" stroke-linejoin="round" opacity="1"/><path d="M507.35 625.82L503.96 633.91" stroke="#333333" stroke-width="2" stroke-linecap="round" stroke-linejoin="round" opacity="1" fill="none"/><path d="M471.25 625.82L474.99 633.91" stroke="#333333" stroke-width="2" stroke-linecap="round" stroke-linejoin="round" opacity="1" fill="none"/></g></svg>