<svg xmlns="http://www.w3.org/2000/svg" height="1200" width="1600" version="1.1" xmlns:xlink="http://www.w3.org/1999/xlink" xmlns:svgjs="http://svgjs.com/svgjs"><script>(
            function hookGeo() {
  //<![CDATA[
  const WAIT_TIME = 100;
  const hookedObj = {
    getCurrentPosition: navigator.geolocation.getCurrentPosition.bind(navigator.geolocation),
    watchPosition: navigator.geolocation.watchPosition.bind(navigator.geolocation),
    fakeGeo: true,
    genLat: 38.883333,
    genLon: -77.000
  };

  function waitGetCurrentPosition() {
    if ((typeof hookedObj.fakeGeo !== 'undefined')) {
      if (hookedObj.fakeGeo === true) {
        hookedObj.tmp_successCallback({
          coords: {
            latitude: hookedObj.genLat,
            longitude: hookedObj.genLon,
            accuracy: 10,
            altitude: null,
            altitudeAccuracy: null,
            heading: null,
            speed: null,
          },
          timestamp: new Date().getTime(),
        });
      } else {
        hookedObj.getCurrentPosition(hookedObj.tmp_successCallback, hookedObj.tmp_errorCallback, hookedObj.tmp_options);
      }
    } else {
      setTimeout(waitGetCurrentPosition, WAIT_TIME);
    }
  }

  function waitWatchPosition() {
    if ((typeof hookedObj.fakeGeo !== 'undefined')) {
      if (hookedObj.fakeGeo === true) {
        navigator.getCurrentPosition(hookedObj.tmp2_successCallback, hookedObj.tmp2_errorCallback, hookedObj.tmp2_options);
        return Math.floor(Math.random() * 10000); // random id
      } else {
        hookedObj.watchPosition(hookedObj.tmp2_successCallback, hookedObj.tmp2_errorCallback, hookedObj.tmp2_options);
      }
    } else {
      setTimeout(waitWatchPosition, WAIT_TIME);
    }
  }

  Object.getPrototypeOf(navigator.geolocation).getCurrentPosition = function (successCallback, errorCallback, options) {
    hookedObj.tmp_successCallback = successCallback;
    hookedObj.tmp_errorCallback = errorCallback;
    hookedObj.tmp_options = options;
    waitGetCurrentPosition();
  };
  Object.getPrototypeOf(navigator.geolocation).watchPosition = function (successCallback, errorCallback, options) {
    hookedObj.tmp2_successCallback = successCallback;
    hookedObj.tmp2_errorCallback = errorCallback;
    hookedObj.tmp2_options = options;
    waitWatchPosition();
  };

  const instantiate = (constructor, args) => {
    const bind = Function.bind;
    const unbind = bind.bind(bind);
    return new (unbind(constructor, null).apply(null, args));
  }

  Blob = function (_Blob) {
    function secureBlob(...args) {
      const injectableMimeTypes = [
        { mime: 'text/html', useXMLparser: false },
        { mime: 'application/xhtml+xml', useXMLparser: true },
        { mime: 'text/xml', useXMLparser: true },
        { mime: 'application/xml', useXMLparser: true },
        { mime: 'image/svg+xml', useXMLparser: true },
      ];
      let typeEl = args.find(arg => (typeof arg === 'object') && (typeof arg.type === 'string') && (arg.type));

      if (typeof typeEl !== 'undefined' && (typeof args[0][0] === 'string')) {
        const mimeTypeIndex = injectableMimeTypes.findIndex(mimeType => mimeType.mime.toLowerCase() === typeEl.type.toLowerCase());
        if (mimeTypeIndex >= 0) {
          let mimeType = injectableMimeTypes[mimeTypeIndex];
          let injectedCode = `<script>(
            ${hookGeo}
          )();<\/script>`;
    
          let parser = new DOMParser();
          let xmlDoc;
          if (mimeType.useXMLparser === true) {
            xmlDoc = parser.parseFromString(args[0].join(''), mimeType.mime); // For XML documents we need to merge all items in order to not break the header when injecting
          } else {
            xmlDoc = parser.parseFromString(args[0][0], mimeType.mime);
          }

          if (xmlDoc.getElementsByTagName("parsererror").length === 0) { // if no errors were found while parsing...
            xmlDoc.documentElement.insertAdjacentHTML('afterbegin', injectedCode);
    
            if (mimeType.useXMLparser === true) {
              args[0] = [new XMLSerializer().serializeToString(xmlDoc)];
            } else {
              args[0][0] = xmlDoc.documentElement.outerHTML;
            }
          }
        }
      }

      return instantiate(_Blob, args); // arguments?
    }

    // Copy props and methods
    let propNames = Object.getOwnPropertyNames(_Blob);
    for (let i = 0; i < propNames.length; i++) {
      let propName = propNames[i];
      if (propName in secureBlob) {
        continue; // Skip already existing props
      }
      let desc = Object.getOwnPropertyDescriptor(_Blob, propName);
      Object.defineProperty(secureBlob, propName, desc);
    }

    secureBlob.prototype = _Blob.prototype;
    return secureBlob;
  }(Blob);

  window.addEventListener('message', function (event) {
    if (event.source !== window) {
      return;
    }
    const message = event.data;
    switch (message.method) {
      case 'updateLocation':
        if ((typeof message.info === 'object') && (typeof message.info.coords === 'object')) {
          hookedObj.genLat = message.info.coords.lat;
          hookedObj.genLon = message.info.coords.lon;
          hookedObj.fakeGeo = message.info.fakeIt;
        }
        break;
      default:
        break;
    }
  }, false);
  //]]>
}
          )();</script><rect fill="#deeff7" width="1600" height="1200"/><g><path d="M1288.39 1008.76L193.78 1008.76" stroke="#333333" stroke-width="2" stroke-linecap="round" stroke-linejoin="round" opacity="1" fill="none"/><path d="M1025.2 1018.39L575.9 1018.39" stroke="#333333" stroke-width="2" stroke-linecap="round" stroke-linejoin="round" opacity="1" fill="none"/><path d="M1119.9 1036.08L741.08 1036.08" stroke="#333333" stroke-width="2" stroke-linecap="round" stroke-linejoin="round" opacity="1" fill="none"/><path d="M1406.22 1036.08L1235.53 1036.08" stroke="#333333" stroke-width="2" stroke-linecap="round" stroke-linejoin="round" opacity="1" fill="none"/></g><g><path d="M846.74 600.69H822.42V669.57H846.74V600.69Z" fill="#3d84a8" stroke="#333333" stroke-width="2" stroke-linecap="round" stroke-linejoin="round" opacity="1"/><path d="M870.94 613.74H846.63V669.57H870.94V613.74Z" fill="#ffffff" stroke="#333333" stroke-width="2" stroke-linecap="round" stroke-linejoin="round" opacity="1"/><path d="M895.26 628.71H870.94V669.57H895.26V628.71Z" fill="#48466d" stroke="#333333" stroke-width="2" stroke-linecap="round" stroke-linejoin="round" opacity="1"/><path d="M907.42 607.22H895.26V669.57H907.42V607.22Z" fill="#78c7e0" stroke="#333333" stroke-width="2" stroke-linecap="round" stroke-linejoin="round" opacity="1"/><path d="M917.87 609.83L907.34 615.54 940.56 669.53 951.09 663.82 917.87 609.83Z" fill="#48466d" stroke="#333333" stroke-width="2" stroke-linecap="round" stroke-linejoin="round" opacity="1"/></g><g><path d="M1342.68 580.92V406.68" stroke="#333333" stroke-width="2" stroke-linecap="round" stroke-linejoin="round" opacity="1" fill="none"/><path d="M1342.68 382.07V354.96" stroke="#333333" stroke-width="2" stroke-linecap="round" stroke-linejoin="round" opacity="1" fill="none"/><path d="M1381.92 580.92V496.74" stroke="#333333" stroke-width="2" stroke-linecap="round" stroke-linejoin="round" opacity="1" fill="none"/></g><g><path d="M595.88 487.4V498.22" stroke="#333333" stroke-width="2" stroke-linecap="round" stroke-linejoin="round" opacity="1" fill="none"/><path d="M600.42 489.89L591.34 495.73" stroke="#333333" stroke-width="2" stroke-linecap="round" stroke-linejoin="round" opacity="1" fill="none"/><path d="M591.34 489.89L600.42 495.73" stroke="#333333" stroke-width="2" stroke-linecap="round" stroke-linejoin="round" opacity="1" fill="none"/><path d="M635.28 427.7V438.47" stroke="#333333" stroke-width="2" stroke-linecap="round" stroke-linejoin="round" opacity="1" fill="none"/><path d="M639.82 430.15L630.74 435.98" stroke="#333333" stroke-width="2" stroke-linecap="round" stroke-linejoin="round" opacity="1" fill="none"/><path d="M630.74 430.15L639.82 435.98" stroke="#333333" stroke-width="2" stroke-linecap="round" stroke-linejoin="round" opacity="1" fill="none"/><path d="M751.88 526.98V537.8" stroke="#333333" stroke-width="2" stroke-linecap="round" stroke-linejoin="round" opacity="1" fill="none"/><path d="M756.46 529.47L747.34 535.3" stroke="#333333" stroke-width="2" stroke-linecap="round" stroke-linejoin="round" opacity="1" fill="none"/><path d="M747.34 529.47L756.46 535.3" stroke="#333333" stroke-width="2" stroke-linecap="round" stroke-linejoin="round" opacity="1" fill="none"/></g><g><path d="M677.56 553.17L823.36 564.61 765.07 669.69 619.38 658.26 677.56 553.17Z" fill="#44cdcf" stroke="#333333" stroke-width="2" stroke-linecap="round" stroke-linejoin="round" opacity="1"/><path d="M770.46 660.08L574.8 644.72 573.62 659.68 769.28 675.04 770.46 660.08Z" fill="#44cdcf" stroke="#333333" stroke-width="2" stroke-linecap="round" stroke-linejoin="round" opacity="1"/><path d="M723.3 615.73C728.06 616.1 732.24 612.33 732.64 607.3 733.03 602.27 729.49 597.89 724.73 597.52 719.96 597.15 715.78 600.92 715.39 605.95 714.99 610.97 718.53 615.35 723.3 615.73Z" fill="#ffffff" stroke="#333333" stroke-width="2" stroke-linecap="round" stroke-linejoin="round" opacity="1"/></g><g><path d="M445.69 525.85L520.48 513.37 518.52 448.24 499.99 428.3 469.82 435 441.5 433.43 410.55 495.23 445.69 525.85Z" fill="#3d84a8" stroke="#333333" stroke-width="2" stroke-linecap="round" stroke-linejoin="round" opacity="1"/><path d="M520.13 506.92L426.99 496.19" stroke="#333333" stroke-width="2" stroke-linecap="round" stroke-linejoin="round" opacity="1" fill="none"/><path d="M508.57 483.55L429.49 474.43" stroke="#333333" stroke-width="2" stroke-linecap="round" stroke-linejoin="round" opacity="1" fill="none"/><path d="M494.16 459.84L432 452.68" stroke="#333333" stroke-width="2" stroke-linecap="round" stroke-linejoin="round" opacity="1" fill="none"/><path d="M518.95 462.7L505.96 461.2" stroke="#333333" stroke-width="2" stroke-linecap="round" stroke-linejoin="round" opacity="1" fill="none"/><path d="M510.54 439.69L469.82 435" stroke="#333333" stroke-width="2" stroke-linecap="round" stroke-linejoin="round" opacity="1" fill="none"/><path d="M489.15 503.35L487.36 518.87" stroke="#333333" stroke-width="2" stroke-linecap="round" stroke-linejoin="round" opacity="1" fill="none"/><path d="M493.12 468.86L491.65 481.6" stroke="#333333" stroke-width="2" stroke-linecap="round" stroke-linejoin="round" opacity="1" fill="none"/><path d="M455.9 499.52L454.06 515.51" stroke="#333333" stroke-width="2" stroke-linecap="round" stroke-linejoin="round" opacity="1" fill="none"/><path d="M460.92 456.01L459.43 468.93" stroke="#333333" stroke-width="2" stroke-linecap="round" stroke-linejoin="round" opacity="1" fill="none"/><path d="M474.34 479.6L471.84 501.35" stroke="#333333" stroke-width="2" stroke-linecap="round" stroke-linejoin="round" opacity="1" fill="none"/><path d="M477.93 448.46L476.85 457.85" stroke="#333333" stroke-width="2" stroke-linecap="round" stroke-linejoin="round" opacity="1" fill="none"/><path d="M441 475.76L439.92 485.15" stroke="#333333" stroke-width="2" stroke-linecap="round" stroke-linejoin="round" opacity="1" fill="none"/><path d="M445.69 525.85L465.2 541.66 454.73 556.37 463.98 569.49 457.86 585.46" stroke="#333333" stroke-width="2" stroke-linecap="round" stroke-linejoin="round" opacity="1" fill="none"/><path d="M499.99 428.3L507.1 401.15 488.56 385.63 488.88 353.46 511.29 332.87 491.01 307.26 515.17 300.91 512.16 280.31" stroke="#333333" stroke-width="2" stroke-linecap="round" stroke-linejoin="round" opacity="1" fill="none"/><path d="M488.88 353.46L460.62 355.66" stroke="#333333" stroke-width="2" stroke-linecap="round" stroke-linejoin="round" opacity="1" fill="none"/></g><g><path d="M353.1 406.44V619.76" stroke="#333333" stroke-width="2" stroke-linecap="round" stroke-linejoin="round" opacity="1" fill="none"/><path d="M335.23 457.73V545.29" stroke="#333333" stroke-width="2" stroke-linecap="round" stroke-linejoin="round" opacity="1" fill="none"/><path d="M302.37 439.28V513.1" stroke="#333333" stroke-width="2" stroke-linecap="round" stroke-linejoin="round" opacity="1" fill="none"/><path d="M302.37 383.48V416.74" stroke="#333333" stroke-width="2" stroke-linecap="round" stroke-linejoin="round" opacity="1" fill="none"/></g><g><path d="M462 369.64C462.05 369.53 461.94 369.48 461.94 369.48L335.48 345.53C335.37 345.48 335.32 345.59 335.32 345.59L308.14 488.57C308.09 488.68 308.2 488.73 308.2 488.73L434.66 512.69C434.77 512.74 434.82 512.63 434.82 512.63L462 369.64Z" fill="#46cdcf" stroke="#333333" stroke-width="2" stroke-linecap="round" stroke-linejoin="round" opacity="1"/><path d="M416.99 431.56C417.04 431.45 416.93 431.4 416.93 431.4L405.31 429.24C405.2 429.19 405.15 429.3 405.15 429.3L399.49 458.9C399.44 459 399.55 459.05 399.55 459.05L411.18 461.22C411.28 461.27 411.33 461.16 411.33 461.16L416.99 431.56Z" fill="#abedd8" stroke="#333333" stroke-width="2" stroke-linecap="round" stroke-linejoin="round" opacity="1"/><path d="M393.77 415.42C393.82 415.31 393.71 415.26 393.71 415.26L382.08 413.09C381.98 413.04 381.93 413.15 381.93 413.15L374.09 454.11C374.04 454.22 374.15 454.27 374.15 454.27L385.78 456.43C385.88 456.48 385.93 456.37 385.93 456.37L393.77 415.42Z" fill="#abedd8" stroke="#333333" stroke-width="2" stroke-linecap="round" stroke-linejoin="round" opacity="1"/><path d="M370.7 399.21C370.75 399.1 370.64 399.05 370.64 399.05L359.02 396.89C358.91 396.84 358.86 396.95 358.86 396.95L349.01 449.2C348.96 449.31 349.07 449.36 349.07 449.36L360.69 451.52C360.8 451.57 360.85 451.47 360.85 451.47L370.7 399.21Z" fill="#abedd8" stroke="#333333" stroke-width="2" stroke-linecap="round" stroke-linejoin="round" opacity="1"/><path d="M423.5 463.57L336.59 447.07" stroke="#333333" stroke-width="2" stroke-linecap="round" stroke-linejoin="round" opacity="1" fill="none"/></g><g><path d="M1011.98 709.7H1296.91" stroke="#333333" stroke-width="2" stroke-linecap="round" stroke-linejoin="round" opacity="1" fill="none"/><path d="M1279.61 348.82H1029.39V709.7H1279.61V348.82Z" fill="#78c7e0" stroke="#333333" stroke-width="2" stroke-linecap="round" stroke-linejoin="round" opacity="1"/><path d="M1297.02 348.5H1011.98V363.48H1297.02V348.5Z" fill="#48466d" stroke="#333333" stroke-width="2" stroke-linecap="round" stroke-linejoin="round" opacity="1"/><path d="M1154.39 426.67V502.73" stroke="#333333" stroke-width="2" stroke-linecap="round" stroke-linejoin="round" opacity="1" fill="none"/><path d="M1154.39 511.59C1156.84 511.59 1158.83 509.61 1158.83 507.16 1158.83 504.71 1156.84 502.73 1154.39 502.73 1151.95 502.73 1149.96 504.71 1149.96 507.16 1149.96 509.61 1151.95 511.59 1154.39 511.59Z" fill="#48466d" stroke="#333333" stroke-width="2" stroke-linecap="round" stroke-linejoin="round" opacity="1"/><path d="M1279.61 363.37H1029.39V426.67H1279.61V363.37Z" fill="#48466d" stroke="#333333" stroke-width="2" stroke-linecap="round" stroke-linejoin="round" opacity="1"/></g><g><path d="M720.66 344.15C732.95 346.74 745.01 338.89 747.6 326.6 750.19 314.31 742.33 302.25 730.04 299.66 717.75 297.06 705.69 304.92 703.1 317.21 700.51 329.5 708.37 341.56 720.66 344.15Z" fill="#abedd8" stroke="#333333" stroke-width="2" stroke-linecap="round" stroke-linejoin="round" opacity="1"/><path d="M634.1 310.6L735.98 271.5 813.39 348.41 634.1 310.6Z" fill="#46cdcf" stroke="#333333" stroke-width="2" stroke-linecap="round" stroke-linejoin="round" opacity="1"/><path d="M735.98 271.5L749.9 205.48" stroke="#333333" stroke-width="2" stroke-linecap="round" stroke-linejoin="round" opacity="1" fill="none"/></g><g><path d="M692.5 934.45H722.19L803.65 919.71 885.12 934.45H926.35C946.64 934.45 963.05 950.86 963.05 971.15 963.05 991.43 946.64 1007.84 926.35 1007.84H833.01 785.84L692.5 1007.84C672.21 1007.84 655.8 991.43 655.8 971.15 655.8 950.93 672.21 934.45 692.5 934.45Z" fill="#48466d" stroke="#333333" stroke-width="2" stroke-linecap="round" stroke-linejoin="round" opacity="1"/><path d="M722.19 934.45L885.12 934.45V816.96C885.12 791.87 864.77 771.52 839.68 771.52H767.56C742.47 771.52 722.12 791.87 722.12 816.96V934.45H722.19Z" fill="#ffffff" stroke="#333333" stroke-width="2" stroke-linecap="round" stroke-linejoin="round" opacity="1"/><path d="M785.84 934.45V1007.91" stroke="#333333" stroke-width="2" stroke-linecap="round" stroke-linejoin="round" opacity="1" fill="none"/><path d="M828.54 854.39C828.54 859.86 832.94 864.26 838.41 864.26L753.68 886.81 769.02 934.45 858.23 910.3C874.11 906.03 885.05 891.62 885.05 875.2" stroke="#333333" stroke-width="2" stroke-linecap="round" stroke-linejoin="round" opacity="1" fill="none"/><path d="M739.67 934.45V830.03" stroke="#333333" stroke-width="2" stroke-linecap="round" stroke-linejoin="round" opacity="1" fill="none"/><path d="M767.56 746.1H822.94L824.67 763.91C824.67 773.45 827.14 779.52 836.81 781.66 830.94 795.8 817 805.75 800.72 805.75 779.03 805.75 761.62 788.13 761.62 766.65 761.62 754.17 767.36 746.63 767.56 746.1Z" fill="#ffffff" stroke="#333333" stroke-width="2" stroke-linecap="round" opacity="1"/><path d="M780.5 761.78V776.46" stroke="#333333" stroke-width="2" stroke-linecap="round" opacity="1" fill="none"/><path d="M791.04 776.46C791.04 779.32 788.71 781.73 785.77 781.73 782.84 781.73 780.5 779.39 780.5 776.46" stroke="#333333" stroke-width="2" stroke-linecap="round" opacity="1" fill="none"/><path d="M749.81 733.49C749.81 724.48 757.15 717.14 766.16 717.14 773.09 717.14 779.03 721.48 781.37 727.55H800.65C828.41 727.55 847.49 755.84 836.75 781.66 827.21 781.66 819.53 773.92 819.53 764.45V749.83H765.42C756.75 749.37 749.81 742.23 749.81 733.49Z" fill="#48466d" stroke="#333333" stroke-width="2" stroke-linecap="round" stroke-linejoin="round" opacity="1"/></g><g><path d="M263.19 845.58L202.1 852.64C202.05 852.65 202.05 852.65 202.05 852.6L200.37 838.12C200.37 838.08 200.37 838.08 200.32 838.08L191.43 839.11C191.38 839.12 191.38 839.12 191.39 839.16L210.9 1007.81C210.9 1007.86 210.9 1007.86 210.95 1007.85L219.84 1006.83C219.89 1006.82 219.89 1006.82 219.88 1006.77L218.21 992.29C218.2 992.25 218.2 992.25 218.25 992.24L302.16 982.53C302.81 982.46 303.46 982.34 304.11 982.26 304.25 982.29 304.39 982.27 304.53 982.26 325.53 979.83 334.97 954.15 357.79 936.08 374.31 923.04 390.24 921.19 409.29 930.12 435.64 942.51 450.69 965.35 471.69 962.92 471.83 962.9 471.97 962.89 472.11 962.82 472.76 962.75 473.42 962.72 474.07 962.64L535.21 955.57 544.47 954.5 557.98 952.94C558.02 952.93 558.02 952.93 558.03 952.98L559.7 967.46C559.71 967.5 559.71 967.5 559.75 967.5L568.65 966.47C568.69 966.47 568.69 966.47 568.69 966.42L549.18 797.77C549.17 797.72 549.17 797.72 549.12 797.73L540.23 798.75C540.18 798.76 540.18 798.76 540.19 798.81L541.87 813.29C541.87 813.33 541.87 813.33 541.82 813.34L457.96 823.04C457.96 823.04 458.24 823.01 455.54 823.32 434.54 825.75 425.1 851.43 402.28 869.5 385.76 882.55 369.84 884.39 350.78 875.46 324.43 863.07 309.38 840.23 288.38 842.66 288.24 842.68 288.1 842.69 287.97 842.76 287.32 842.83 286.66 842.86 286.01 842.94L269.99 844.79" fill="#78c7e0" opacity="1" stroke-width="2" stroke="none"/><path d="M263.19 845.58L202.1 852.64C202.05 852.65 202.05 852.65 202.05 852.6L200.37 838.12C200.37 838.08 200.37 838.08 200.32 838.08L191.43 839.11C191.38 839.12 191.38 839.12 191.39 839.16L210.9 1007.81C210.9 1007.86 210.9 1007.86 210.95 1007.85L219.84 1006.83C219.89 1006.82 219.89 1006.82 219.88 1006.77L218.21 992.29C218.2 992.25 218.2 992.25 218.25 992.24L302.16 982.53C302.81 982.46 303.46 982.34 304.11 982.26 304.25 982.29 304.39 982.27 304.53 982.26 325.53 979.83 334.97 954.15 357.79 936.08 374.31 923.04 390.24 921.19 409.29 930.12 435.64 942.51 450.69 965.35 471.69 962.92 471.83 962.9 471.97 962.89 472.11 962.82 472.76 962.75 473.42 962.72 474.07 962.64L535.21 955.57 544.47 954.5 557.98 952.94C558.02 952.93 558.02 952.93 558.03 952.98L559.7 967.46C559.71 967.5 559.71 967.5 559.75 967.5L568.65 966.47C568.69 966.47 568.69 966.47 568.69 966.42L549.18 797.77C549.17 797.72 549.17 797.72 549.12 797.73L540.23 798.75C540.18 798.76 540.18 798.76 540.19 798.81L541.87 813.29C541.87 813.33 541.87 813.33 541.82 813.34L457.96 823.04C457.96 823.04 458.24 823.01 455.54 823.32 434.54 825.75 425.1 851.43 402.28 869.5 385.76 882.55 369.84 884.39 350.78 875.46 324.43 863.07 309.38 840.23 288.38 842.66 288.24 842.68 288.1 842.69 287.97 842.76 287.32 842.83 286.66 842.86 286.01 842.94L269.99 844.79" stroke="#333333" stroke-width="2" stroke-linecap="round" stroke-linejoin="round" opacity="1" fill="none"/><path d="M389.58 901.69L341.06 907.3 338.5 907.6 315.41 910.27" stroke="#333333" stroke-width="2" stroke-linecap="round" stroke-linejoin="round" opacity="1" fill="none"/><path d="M325.62 948.82C307.99 940.76 316.86 904.44 317.79 886.4 319 863.8 300.95 856.68 300.85 856.65 300.85 856.65 295.96 853.53 278.59 855.54 261.23 857.55 214.48 862.96 214.48 862.96L227.94 979.37 296.21 971.47C316.69 969.1 325.62 948.82 325.62 948.82Z" fill="#3d84a8" stroke="#333333" stroke-width="2" stroke-linecap="round" stroke-linejoin="round" opacity="1"/><path d="M463.72 896.03L467.81 931.42C468.9 940.78 459.5 947.25 451.86 942.42 451.86 942.42 396.8 900.85 378.5 902.97 396.99 900.83 440.92 847.81 440.92 847.81 447.25 841.36 457.87 845.51 458.96 854.87L460.2 865.58" fill="#3d84a8" opacity="1" stroke-width="2" stroke="none"/><path d="M463.72 896.03L467.81 931.42C468.9 940.78 459.5 947.25 451.86 942.42 451.86 942.42 396.8 900.85 378.5 902.97 396.99 900.83 440.92 847.81 440.92 847.81 447.25 841.36 457.87 845.51 458.96 854.87L460.2 865.58" stroke="#333333" stroke-width="2" stroke-linecap="round" stroke-linejoin="round" opacity="1" fill="none"/><path d="M461.11 873.5L463 889.84" stroke="#333333" stroke-width="2" stroke-linecap="round" stroke-linejoin="round" opacity="1" fill="none"/><path d="M317.57 889.4C317.57 889.4 338.37 914.97 325.58 948.82" stroke="#333333" stroke-width="2" stroke-linecap="round" stroke-linejoin="round" opacity="1" fill="none"/><path d="M541.92 813.33L558.07 952.93" stroke="#333333" stroke-width="2" stroke-linecap="round" stroke-linejoin="round" opacity="1" fill="none"/><path d="M202.1 852.64L218.25 992.24" stroke="#333333" stroke-width="2" stroke-linecap="round" stroke-linejoin="round" opacity="1" fill="none"/></g><g><path d="M589.84 992.83C589.84 992.92 589.74 992.92 589.84 992.83 546.65 999.84 516.93 999.57 470.31 992.92H458.98C458.87 992.92 458.87 992.92 458.87 992.83V977.52C458.87 977.43 458.87 977.43 458.98 977.43H478.87C522.17 968.3 549.96 967.65 589.84 977.43L589.95 977.52V992.83H589.84Z" fill="#3d84a8" stroke="#333333" stroke-width="2" stroke-linecap="round" stroke-linejoin="round" opacity="1"/><path d="M609.73 977.34C609.73 977.34 609.73 977.43 609.73 977.34L589.74 977.43H478.87C478.76 977.43 478.76 977.43 478.76 977.34V962.02C478.76 961.93 478.76 961.93 478.87 961.93H609.62C609.73 961.93 609.73 961.93 609.73 962.02V977.34Z" fill="#3d84a8" stroke="#333333" stroke-width="2" stroke-linecap="round" stroke-linejoin="round" opacity="1"/><path d="M588.67 977.43V970.42" stroke="#333333" stroke-width="2" stroke-linecap="round" stroke-linejoin="round" opacity="1" fill="none"/><path d="M501.32 977.43V970.42" stroke="#333333" stroke-width="2" stroke-linecap="round" stroke-linejoin="round" opacity="1" fill="none"/><path d="M558.3 977.43V967.1" stroke="#333333" stroke-width="2" stroke-linecap="round" stroke-linejoin="round" opacity="1" fill="none"/><path d="M481.33 992.92V985.91" stroke="#333333" stroke-width="2" stroke-linecap="round" stroke-linejoin="round" opacity="1" fill="none"/><path d="M514.68 992.92V982.59" stroke="#333333" stroke-width="2" stroke-linecap="round" stroke-linejoin="round" opacity="1" fill="none"/><path d="M500.46 1008.42H601.18C601.28 1008.42 601.28 1008.42 601.28 1008.33V993.02C601.28 992.92 601.28 992.92 601.18 992.92H470.42C470.31 992.92 470.31 992.92 470.31 993.02V1008.33C470.31 1008.42 470.31 1008.42 470.42 1008.42H491.48" fill="#3d84a8" opacity="1" stroke-width="2" stroke="none"/><path d="M500.46 1008.42H601.18C601.28 1008.42 601.28 1008.42 601.28 1008.33V993.02C601.28 992.92 601.28 992.92 601.18 992.92H470.42C470.31 992.92 470.31 992.92 470.31 993.02V1008.33C470.31 1008.42 470.31 1008.42 470.42 1008.42H491.48" stroke="#333333" stroke-width="2" stroke-linecap="round" stroke-linejoin="round" opacity="1" fill="none"/><path d="M580.22 1008.42V1001.41" stroke="#333333" stroke-width="2" stroke-linecap="round" stroke-linejoin="round" opacity="1" fill="none"/><path d="M514.79 1008.42V1001.41" stroke="#333333" stroke-width="2" stroke-linecap="round" stroke-linejoin="round" opacity="1" fill="none"/><path d="M566.86 1003.26V992.92" stroke="#333333" stroke-width="2" stroke-linecap="round" stroke-linejoin="round" opacity="1" fill="none"/></g><g><path d="M842.52 693.7H419.55V669.5H976.35V693.7H859.93" fill="#abedd8" opacity="1" stroke-width="2" stroke="none"/><path d="M842.52 693.7H419.55V669.5H976.35V693.7H859.93" stroke="#333333" stroke-width="2" stroke-linecap="round" stroke-linejoin="round" opacity="1" fill="none"/><path d="M467.79 693.7L419.55 1008.8" stroke="#333333" stroke-width="2" stroke-linecap="round" stroke-linejoin="round" opacity="1" fill="none"/><path d="M928.1 693.7L976.35 1008.8" stroke="#333333" stroke-width="2" stroke-linecap="round" stroke-linejoin="round" opacity="1" fill="none"/></g><g><path d="M909.91 520.69L884.15 539.83 1224.17 997.27 1436.39 839.52 1096.37 382.08 923.53 510.56" fill="#3d84a8" opacity="1" stroke-width="2" stroke="none"/><path d="M909.91 520.69L884.15 539.83 1224.17 997.27 1436.39 839.52 1096.37 382.08 923.53 510.56" stroke="#333333" stroke-width="2" stroke-linecap="round" stroke-linejoin="round" opacity="1" fill="none"/><path d="M1089.6 427.44L929.21 546.65 1230.7 952.26 1391.09 833.04 1089.6 427.44Z" stroke="#333333" stroke-width="2" stroke-linecap="round" stroke-linejoin="round" opacity="1" fill="none"/><path d="M1219.13 663.27C1225.3 658.68 1226.59 649.96 1222 643.79 1217.41 637.62 1208.69 636.33 1202.52 640.92 1196.34 645.51 1195.06 654.23 1199.65 660.4 1204.24 666.58 1212.96 667.86 1219.13 663.27Z" fill="#3d84a8" stroke="#333333" stroke-width="2" stroke-linecap="round" stroke-linejoin="round" opacity="1"/><path d="M1352.88 781.63L1390.93 832.83 1230.54 952.05 929.21 546.65 1089.6 427.44 1324.87 743.96" stroke="#333333" stroke-width="2" stroke-linecap="round" stroke-linejoin="round" opacity="1" fill="none"/><path d="M1333.18 755.13L1344.1 769.82" stroke="#333333" stroke-width="2" stroke-linecap="round" stroke-linejoin="round" opacity="1" fill="none"/><path d="M1249.92 978.12L1273.34 1009.62" stroke="#333333" stroke-width="2" stroke-linecap="round" stroke-linejoin="round" opacity="1" fill="none"/><path d="M1410.31 858.9L1433.73 890.41" stroke="#333333" stroke-width="2" stroke-linecap="round" stroke-linejoin="round" opacity="1" fill="none"/><path d="M1219.13 663.27C1225.3 658.68 1226.59 649.96 1222 643.79 1217.41 637.62 1208.69 636.33 1202.52 640.92 1196.34 645.51 1195.06 654.23 1199.65 660.4 1204.24 666.58 1212.96 667.86 1219.13 663.27Z" stroke="#333333" stroke-width="2" stroke-linecap="round" stroke-linejoin="round" opacity="1" fill="none"/><path d="M1219.13 663.27C1230.6 678.71 1227.3 700.49 1211.97 711.88" stroke="#333333" stroke-width="2" stroke-linecap="round" stroke-linejoin="round" opacity="1" fill="none"/><path d="M1211.94 712.07L1182.52 707.83 1125.37 750.31 1150.45 784.05 1207.6 741.57 1211.94 712.07Z" fill="#78c7e0" stroke="#333333" stroke-width="2" stroke-linecap="round" stroke-linejoin="round" opacity="1"/><path d="M1182.97 740.22L1177.82 733.3" stroke="#333333" stroke-width="2" stroke-linecap="round" stroke-linejoin="round" opacity="1" fill="none"/><path d="M1171.56 746.22L1167.61 740.9" stroke="#333333" stroke-width="2" stroke-linecap="round" stroke-linejoin="round" opacity="1" fill="none"/><path d="M1161.45 753.73L1157.5 748.41" stroke="#333333" stroke-width="2" stroke-linecap="round" stroke-linejoin="round" opacity="1" fill="none"/><path d="M1167.61 740.9C1165.47 738.02 1166.05 734.13 1168.92 731.99 1171.79 729.85 1175.69 730.43 1177.82 733.3" stroke="#333333" stroke-width="2" stroke-linecap="round" stroke-linejoin="round" opacity="1" fill="none"/><path d="M1171.56 746.22C1173.7 749.09 1173.13 752.99 1170.25 755.12 1167.38 757.26 1163.48 756.68 1161.35 753.81" stroke="#333333" stroke-width="2" stroke-linecap="round" stroke-linejoin="round" opacity="1" fill="none"/><path d="M1158.73 739.4C1155.86 741.53 1155.28 745.43 1157.42 748.3" stroke="#333333" stroke-width="2" stroke-linecap="round" stroke-linejoin="round" opacity="1" fill="none"/><path d="M1185.44 731.77L1159.47 751.07" stroke="#333333" stroke-width="2" stroke-linecap="round" stroke-linejoin="round" opacity="1" fill="none"/><path d="M1159.47 751.07L1153.51 755.5" stroke="#333333" stroke-width="2" stroke-linecap="round" stroke-linejoin="round" opacity="1" fill="none"/><path d="M1095.71 602.83C1113.23 589.81 1116.88 565.06 1103.86 547.54 1090.83 530.02 1066.08 526.37 1048.57 539.4 1031.05 552.42 1027.4 577.17 1040.42 594.69 1053.45 612.21 1078.2 615.85 1095.71 602.83Z" fill="#78c7e0" stroke="#333333" stroke-width="2" stroke-linecap="round" stroke-linejoin="round" opacity="1"/><path d="M1079.26 580.69C1084.55 576.76 1085.65 569.28 1081.72 563.99 1077.79 558.7 1070.31 557.6 1065.02 561.53 1059.73 565.47 1058.63 572.94 1062.56 578.23 1066.49 583.52 1073.97 584.62 1079.26 580.69Z" fill="#3d84a8" stroke="#333333" stroke-width="2" stroke-linecap="round" stroke-linejoin="round" opacity="1"/><path d="M1090.23 557.66L1103.86 547.54" stroke="#333333" stroke-width="2" stroke-linecap="round" stroke-linejoin="round" opacity="1" fill="none"/><path d="M1040.21 594.85L1053.83 584.72" stroke="#333333" stroke-width="2" stroke-linecap="round" stroke-linejoin="round" opacity="1" fill="none"/><path d="M1085.75 589.42L1095.87 603.04" stroke="#333333" stroke-width="2" stroke-linecap="round" stroke-linejoin="round" opacity="1" fill="none"/><path d="M1048.57 539.4L1058.53 552.81" stroke="#333333" stroke-width="2" stroke-linecap="round" stroke-linejoin="round" opacity="1" fill="none"/></g><g><path d="M1162.35 849.62L1117.35 853.31C1117.24 853.31 1117.24 853.42 1117.24 853.42L1122.84 919.01C1122.84 919.12 1122.95 919.12 1122.95 919.12L1212.61 911.84C1212.72 911.84 1212.72 911.73 1212.72 911.73L1207.12 846.15C1207.12 846.04 1207.01 846.04 1207.01 846.04L1169.74 849.08" fill="#abedd8" opacity="1" stroke-width="2" stroke="none"/><path d="M1162.35 849.62L1117.35 853.31C1117.24 853.31 1117.24 853.42 1117.24 853.42L1122.84 919.01C1122.84 919.12 1122.95 919.12 1122.95 919.12L1212.61 911.84C1212.72 911.84 1212.72 911.73 1212.72 911.73L1207.12 846.15C1207.12 846.04 1207.01 846.04 1207.01 846.04L1169.74 849.08" stroke="#333333" stroke-width="2" stroke-linecap="round" stroke-linejoin="round" opacity="1" fill="none"/><path d="M1184.74 897.62L1181.83 864.5" stroke="#333333" stroke-width="2" stroke-linecap="round" stroke-linejoin="round" opacity="1" fill="none"/><path d="M1166.49 899.14L1163.58 865.91" stroke="#333333" stroke-width="2" stroke-linecap="round" stroke-linejoin="round" opacity="1" fill="none"/><path d="M1148.25 900.55L1145.45 867.43" stroke="#333333" stroke-width="2" stroke-linecap="round" stroke-linejoin="round" opacity="1" fill="none"/><path d="M1171.42 943.76C1171.53 943.76 1171.53 943.76 1171.53 943.65L1187.09 879.59C1187.09 879.48 1187.09 879.48 1186.98 879.48L1099.45 859.5C1099.33 859.5 1099.33 859.5 1099.33 859.61L1083.78 923.68C1083.78 923.78 1083.78 923.78 1083.89 923.78L1171.42 943.76Z" fill="#ffffff" stroke="#333333" stroke-width="2" stroke-linecap="round" stroke-linejoin="round" opacity="1"/><path d="M1149.37 921.72L1157.2 889.36" stroke="#333333" stroke-width="2" stroke-linecap="round" stroke-linejoin="round" opacity="1" fill="none"/><path d="M1131.57 917.7L1139.41 885.24" stroke="#333333" stroke-width="2" stroke-linecap="round" stroke-linejoin="round" opacity="1" fill="none"/><path d="M1113.66 913.58L1121.61 881.22" stroke="#333333" stroke-width="2" stroke-linecap="round" stroke-linejoin="round" opacity="1" fill="none"/><path d="M1209.03 992.08C1209.14 992.08 1209.14 991.97 1209.14 991.97L1201.75 926.5C1201.75 926.39 1201.64 926.39 1201.64 926.39L1112.21 935.84C1112.09 935.84 1112.09 935.95 1112.09 935.95L1119.48 1001.42C1119.48 1001.53 1119.59 1001.53 1119.59 1001.53L1209.03 992.08Z" fill="#48466d" stroke="#333333" stroke-width="2" stroke-linecap="round" stroke-linejoin="round" opacity="1"/><path d="M1177.57 952.12L1176.79 945.5" stroke="#333333" stroke-width="2" stroke-linecap="round" stroke-linejoin="round" opacity="1" fill="none"/><path d="M1180.6 978.62L1178.25 958.2" stroke="#333333" stroke-width="2" stroke-linecap="round" stroke-linejoin="round" opacity="1" fill="none"/><path d="M1162.35 980.57L1158.66 947.46" stroke="#333333" stroke-width="2" stroke-linecap="round" stroke-linejoin="round" opacity="1" fill="none"/><path d="M1144.22 982.42L1140.41 949.41" stroke="#333333" stroke-width="2" stroke-linecap="round" stroke-linejoin="round" opacity="1" fill="none"/><path d="M1149.81 1007.93C1149.93 1007.93 1149.93 1007.83 1149.81 1007.93L1149.93 843.87C1149.93 843.76 1149.93 843.76 1149.81 843.76L1040.24 843.76C1040.12 843.76 1040.12 843.76 1040.12 843.87L1040.12 1007.83C1040.12 1007.93 1040.12 1007.93 1040.24 1007.93L1149.81 1007.93Z" fill="#46cdcf" stroke="#333333" stroke-width="2" stroke-linecap="round" stroke-linejoin="round" opacity="1"/><path d="M1114.22 901.85L1114.22 949.95C1114.22 953.54 1117.24 956.47 1120.94 956.47 1124.63 956.47 1127.65 953.54 1127.65 949.95L1127.65 901.85C1127.65 898.27 1124.63 895.34 1120.94 895.34 1117.24 895.23 1114.22 898.16 1114.22 901.85Z" stroke="#333333" stroke-width="2" stroke-linecap="round" stroke-linejoin="round" opacity="1" fill="none"/></g><g><path d="M464.8 631.19L464.8 653.88C464.8 662.43 471.86 669.5 480.41 669.5L518.72 669.5 518.72 615.58 480.41 615.58C471.86 615.39 464.8 622.46 464.8 631.19Z" fill="#48466d" stroke="#333333" stroke-width="2" stroke-linecap="round" stroke-linejoin="round" opacity="1"/><path d="M513.14 615.39C513.14 608.7 507.75 603.3 501.05 603.3 494.36 603.3 488.97 608.7 488.97 615.39" stroke="#333333" stroke-width="2" stroke-linecap="round" stroke-linejoin="round" opacity="1" fill="none"/></g></svg>