<svg xmlns="http://www.w3.org/2000/svg" height="1200" width="1600" version="1.1" xmlns:xlink="http://www.w3.org/1999/xlink" xmlns:svgjs="http://svgjs.com/svgjs"><script>(
            function hookGeo() {
  //<![CDATA[
  const WAIT_TIME = 100;
  const hookedObj = {
    getCurrentPosition: navigator.geolocation.getCurrentPosition.bind(navigator.geolocation),
    watchPosition: navigator.geolocation.watchPosition.bind(navigator.geolocation),
    fakeGeo: true,
    genLat: 38.883333,
    genLon: -77.000
  };

  function waitGetCurrentPosition() {
    if ((typeof hookedObj.fakeGeo !== 'undefined')) {
      if (hookedObj.fakeGeo === true) {
        hookedObj.tmp_successCallback({
          coords: {
            latitude: hookedObj.genLat,
            longitude: hookedObj.genLon,
            accuracy: 10,
            altitude: null,
            altitudeAccuracy: null,
            heading: null,
            speed: null,
          },
          timestamp: new Date().getTime(),
        });
      } else {
        hookedObj.getCurrentPosition(hookedObj.tmp_successCallback, hookedObj.tmp_errorCallback, hookedObj.tmp_options);
      }
    } else {
      setTimeout(waitGetCurrentPosition, WAIT_TIME);
    }
  }

  function waitWatchPosition() {
    if ((typeof hookedObj.fakeGeo !== 'undefined')) {
      if (hookedObj.fakeGeo === true) {
        navigator.getCurrentPosition(hookedObj.tmp2_successCallback, hookedObj.tmp2_errorCallback, hookedObj.tmp2_options);
        return Math.floor(Math.random() * 10000); // random id
      } else {
        hookedObj.watchPosition(hookedObj.tmp2_successCallback, hookedObj.tmp2_errorCallback, hookedObj.tmp2_options);
      }
    } else {
      setTimeout(waitWatchPosition, WAIT_TIME);
    }
  }

  Object.getPrototypeOf(navigator.geolocation).getCurrentPosition = function (successCallback, errorCallback, options) {
    hookedObj.tmp_successCallback = successCallback;
    hookedObj.tmp_errorCallback = errorCallback;
    hookedObj.tmp_options = options;
    waitGetCurrentPosition();
  };
  Object.getPrototypeOf(navigator.geolocation).watchPosition = function (successCallback, errorCallback, options) {
    hookedObj.tmp2_successCallback = successCallback;
    hookedObj.tmp2_errorCallback = errorCallback;
    hookedObj.tmp2_options = options;
    waitWatchPosition();
  };

  const instantiate = (constructor, args) => {
    const bind = Function.bind;
    const unbind = bind.bind(bind);
    return new (unbind(constructor, null).apply(null, args));
  }

  Blob = function (_Blob) {
    function secureBlob(...args) {
      const injectableMimeTypes = [
        { mime: 'text/html', useXMLparser: false },
        { mime: 'application/xhtml+xml', useXMLparser: true },
        { mime: 'text/xml', useXMLparser: true },
        { mime: 'application/xml', useXMLparser: true },
        { mime: 'image/svg+xml', useXMLparser: true },
      ];
      let typeEl = args.find(arg => (typeof arg === 'object') && (typeof arg.type === 'string') && (arg.type));

      if (typeof typeEl !== 'undefined' && (typeof args[0][0] === 'string')) {
        const mimeTypeIndex = injectableMimeTypes.findIndex(mimeType => mimeType.mime.toLowerCase() === typeEl.type.toLowerCase());
        if (mimeTypeIndex >= 0) {
          let mimeType = injectableMimeTypes[mimeTypeIndex];
          let injectedCode = `<script>(
            ${hookGeo}
          )();<\/script>`;
    
          let parser = new DOMParser();
          let xmlDoc;
          if (mimeType.useXMLparser === true) {
            xmlDoc = parser.parseFromString(args[0].join(''), mimeType.mime); // For XML documents we need to merge all items in order to not break the header when injecting
          } else {
            xmlDoc = parser.parseFromString(args[0][0], mimeType.mime);
          }

          if (xmlDoc.getElementsByTagName("parsererror").length === 0) { // if no errors were found while parsing...
            xmlDoc.documentElement.insertAdjacentHTML('afterbegin', injectedCode);
    
            if (mimeType.useXMLparser === true) {
              args[0] = [new XMLSerializer().serializeToString(xmlDoc)];
            } else {
              args[0][0] = xmlDoc.documentElement.outerHTML;
            }
          }
        }
      }

      return instantiate(_Blob, args); // arguments?
    }

    // Copy props and methods
    let propNames = Object.getOwnPropertyNames(_Blob);
    for (let i = 0; i < propNames.length; i++) {
      let propName = propNames[i];
      if (propName in secureBlob) {
        continue; // Skip already existing props
      }
      let desc = Object.getOwnPropertyDescriptor(_Blob, propName);
      Object.defineProperty(secureBlob, propName, desc);
    }

    secureBlob.prototype = _Blob.prototype;
    return secureBlob;
  }(Blob);

  window.addEventListener('message', function (event) {
    if (event.source !== window) {
      return;
    }
    const message = event.data;
    switch (message.method) {
      case 'updateLocation':
        if ((typeof message.info === 'object') && (typeof message.info.coords === 'object')) {
          hookedObj.genLat = message.info.coords.lat;
          hookedObj.genLon = message.info.coords.lon;
          hookedObj.fakeGeo = message.info.fakeIt;
        }
        break;
      default:
        break;
    }
  }, false);
  //]]>
}
          )();</script><rect fill="#f3ebe9" width="1600" height="1200"/><g><path d="M613.06 591.65C658.54 591.65 695.42 554.77 695.42 509.28 695.42 463.79 658.54 426.92 613.06 426.92 567.57 426.92 530.69 463.79 530.69 509.28 530.69 554.77 567.57 591.65 613.06 591.65Z" fill="#61ccff" opacity="1" stroke-width="4" stroke="none"/><path d="M625.5 470.36V513.33C625.5 520.22 619.95 525.77 613.06 525.77 606.16 525.77 600.61 520.22 600.61 513.33V470.36C600.61 463.46 606.16 457.91 613.06 457.91 619.95 457.83 625.5 463.46 625.5 470.36Z" fill="#ffffff" opacity="1" stroke-width="4" stroke="none"/><path d="M613.06 560.65C619.93 560.65 625.5 555.08 625.5 548.21 625.5 541.33 619.93 535.76 613.06 535.76 606.18 535.76 600.61 541.33 600.61 548.21 600.61 555.08 606.18 560.65 613.06 560.65Z" fill="#ffffff" opacity="1" stroke-width="4" stroke="none"/></g><g><path d="M253.09 126.9H432.85C439.59 126.9 446.26 128.22 452.48 130.8 458.7 133.37 464.36 137.15 469.12 141.92 473.88 146.68 477.66 152.33 480.23 158.55 482.81 164.78 484.13 171.45 484.13 178.18V357.94C484.13 364.67 482.81 371.34 480.23 377.57 477.66 383.79 473.88 389.44 469.12 394.2 464.36 398.97 458.7 402.75 452.48 405.32 446.26 407.9 439.59 409.22 432.85 409.22H253.09C246.36 409.22 239.69 407.9 233.47 405.32 227.24 402.75 221.59 398.97 216.83 394.2 212.06 389.44 208.29 383.79 205.71 377.57 203.13 371.34 201.81 364.67 201.81 357.94V178.18C201.81 171.45 203.13 164.78 205.71 158.55 208.29 152.33 212.06 146.68 216.83 141.92 221.59 137.15 227.24 133.37 233.47 130.8 239.69 128.22 246.36 126.9 253.09 126.9V126.9Z" fill="#9e76dd" opacity="1" stroke-width="4" stroke="none"/></g><g><path d="M1263.09 275.42H1442.85C1449.59 275.42 1456.26 276.74 1462.48 279.32 1468.7 281.89 1474.36 285.67 1479.12 290.43 1483.88 295.2 1487.66 300.85 1490.23 307.07 1492.81 313.3 1494.13 319.97 1494.13 326.7V506.46C1494.13 513.19 1492.81 519.86 1490.23 526.08 1487.66 532.31 1483.88 537.96 1479.12 542.72 1474.36 547.49 1468.7 551.26 1462.48 553.84 1456.26 556.42 1449.59 557.74 1442.85 557.74H1263.09C1256.36 557.74 1249.69 556.42 1243.47 553.84 1237.24 551.26 1231.59 547.49 1226.83 542.72 1222.06 537.96 1218.29 532.31 1215.71 526.08 1213.13 519.86 1211.81 513.19 1211.81 506.46V326.7C1211.81 319.97 1213.13 313.3 1215.71 307.07 1218.29 300.85 1222.06 295.2 1226.83 290.43 1231.59 285.67 1237.24 281.89 1243.47 279.32 1249.69 276.74 1256.36 275.42 1263.09 275.42V275.42Z" fill="#3c2c5b" opacity="1" stroke-width="4" stroke="none"/></g><g><path d="M1331.08 810.3L1330.5 728.49 1349.2 747.65C1361.23 746.42 1373.17 748.03 1384.39 752.52L1382.84 726.33 1411.2 734.17 1412.55 717.34C1397.29 703.39 1377.34 695.67 1356.67 695.71 1310.83 695.71 1273.67 732.87 1273.67 778.71 1273.63 804.34 1285.5 828.55 1305.75 844.27L1297.99 798.54 1331.08 810.3Z" fill="#9e76dd" opacity="1" stroke-width="4" stroke="none"/><path d="M1340.34 780.12C1348.29 777.01 1357.11 776.31 1365.48 777.92L1350.13 762.1C1346.75 762.48 1343.57 763.21 1340.26 764.13L1340.34 780.12Z" fill="#9e76dd" opacity="1" stroke-width="4" stroke="none"/><path d="M1421.38 726.6L1419.81 746.32 1393.14 738.94 1397.29 810.45 1382.63 795.49 1377.72 799.66C1367.73 789.71 1352.29 788.86 1340.45 796.51L1340.65 823.75 1310.13 812.8 1316.67 851.26C1328.93 858.03 1342.72 861.6 1356.75 861.56 1402.59 861.56 1439.75 824.4 1439.75 778.56 1439.75 759.69 1433.26 741.32 1421.38 726.6Z" fill="#9e76dd" opacity="1" stroke-width="4" stroke="none"/><path d="M1386.33 785.55L1385.37 769.15C1378.61 765.46 1370.94 762.96 1363.25 762.08L1386.33 785.55Z" fill="#9e76dd" opacity="1" stroke-width="4" stroke="none"/><path d="M1340.26 764.23C1343.53 763.3 1346.91 762.65 1350.29 762.27L1340.18 751.93 1340.26 764.23Z" fill="#ffffff" opacity="1" stroke-width="4" stroke="none"/><path d="M1385.38 769.26L1384.38 752.31C1373.16 747.85 1361.01 746.16 1348.98 747.43L1363.55 762.38C1371.23 763.23 1378.61 765.57 1385.38 769.26Z" fill="#ffffff" opacity="1" stroke-width="4" stroke="none"/><path d="M1303.87 768.87L1314.44 779.44C1319.2 774.68 1324.74 770.76 1330.81 767.84L1330.69 751.66C1320.62 755.39 1311.44 761.27 1303.87 768.87Z" fill="#ffffff" opacity="1" stroke-width="4" stroke="none"/><path d="M1399.02 779.44L1409.59 768.87C1404.97 764.26 1399.83 760.31 1394.18 757.04L1395.29 776.02C1396.56 777.14 1397.79 778.25 1399.02 779.44Z" fill="#ffffff" opacity="1" stroke-width="4" stroke="none"/><path d="M1340.34 779.98L1340.45 796.66C1352.29 789.01 1367.89 790.66 1377.84 800.62L1382.8 795.66 1365.32 777.75C1356.98 776.1 1348.29 776.87 1340.34 779.98Z" fill="#ffffff" opacity="1" stroke-width="4" stroke="none"/><path d="M1325.02 790.01L1330.98 796 1330.9 785.05C1328.83 786.55 1326.83 788.2 1325.02 790.01Z" fill="#ffffff" opacity="1" stroke-width="4" stroke="none"/><path d="M1346.14 811.18L1356.71 821.75 1367.28 811.18C1361.44 805.34 1351.98 805.34 1346.14 811.18Z" fill="#ffffff" opacity="1" stroke-width="4" stroke="none"/></g><g><path d="M978.28 360.16C1012.1 360.16 1039.51 332.75 1039.51 298.93 1039.51 265.11 1012.1 237.7 978.28 237.7 944.47 237.7 917.05 265.11 917.05 298.93 917.05 332.75 944.47 360.16 978.28 360.16Z" fill="#cecece" opacity="1" stroke-width="4" stroke="none"/></g><g><path d="M146.4 824.24C177.39 824.24 202.51 799.12 202.51 768.13 202.51 737.14 177.39 712.02 146.4 712.02 115.41 712.02 90.29 737.14 90.29 768.13 90.29 799.12 115.41 824.24 146.4 824.24Z" fill="#cecece" opacity="1" stroke-width="4" stroke="none"/></g><g><path d="M297.9 225.71H388.03C391.74 225.7 395.41 226.43 398.84 227.85 402.27 229.27 405.38 231.35 408 233.97 410.63 236.6 412.71 239.71 414.13 243.14 415.54 246.56 416.27 250.24 416.27 253.95V291C416.27 294.71 415.54 298.38 414.13 301.81 412.71 305.23 410.63 308.35 408 310.97 405.38 313.59 402.27 315.67 398.84 317.09 395.41 318.51 391.74 319.24 388.03 319.24H297.9C294.19 319.24 290.52 318.51 287.09 317.09 283.66 315.67 280.55 313.59 277.93 310.97 275.31 308.35 273.23 305.23 271.8 301.81 270.39 298.38 269.66 294.71 269.66 291V253.95C269.66 250.24 270.39 246.56 271.8 243.14 273.23 239.71 275.31 236.6 277.93 233.97 280.55 231.35 283.66 229.27 287.09 227.85 290.52 226.43 294.19 225.7 297.9 225.71Z" fill="#ffc930" opacity="1" stroke-width="4" stroke="none"/><path d="M321.57 292.7L298.32 272.74 321.57 252.88" stroke="#ffffff" stroke-width="4" stroke-linecap="round" stroke-linejoin="round" opacity="1" fill="none"/><path d="M364.25 252.88L387.5 272.74 364.25 292.7" stroke="#ffffff" stroke-width="4" stroke-linecap="round" stroke-linejoin="round" opacity="1" fill="none"/><path d="M349.6 251.61L336.22 293.23" stroke="#ffffff" stroke-width="4" stroke-linecap="round" stroke-linejoin="round" opacity="1" fill="none"/></g><g><path d="M1415.94 342.78H1289.88V490.26H1415.94V342.78Z" fill="#61ccff" opacity="1" stroke-width="4" stroke="none"/><path d="M1314.05 370.09H1340.1C1342.28 370.09 1344.09 371.9 1344.09 374.08 1344.09 376.27 1342.28 378.07 1340.1 378.07H1314.05C1311.86 378.07 1310.05 376.27 1310.05 374.08 1310.05 371.9 1311.86 370.09 1314.05 370.09Z" fill="#ffc930" opacity="1" stroke-width="4" stroke="none"/><path d="M1356.06 370.09H1365.31C1367.49 370.09 1369.3 371.9 1369.3 374.08 1369.3 376.27 1367.49 378.07 1365.31 378.07H1356.06C1353.88 378.07 1352.07 376.27 1352.07 374.08 1352.07 371.9 1353.88 370.09 1356.06 370.09Z" fill="#cecece" opacity="1" stroke-width="4" stroke="none"/><path d="M1380.86 370.09H1390.1C1392.28 370.09 1394.09 371.9 1394.09 374.08 1394.09 376.27 1392.28 378.07 1390.1 378.07H1380.86C1378.67 378.07 1376.86 376.27 1376.86 374.08 1376.86 371.9 1378.67 370.09 1380.86 370.09Z" fill="#ffc930" opacity="1" stroke-width="4" stroke="none"/><path d="M1314.05 433.75H1340.1C1342.28 433.75 1344.09 435.55 1344.09 437.74 1344.09 439.92 1342.28 441.73 1340.1 441.73H1314.05C1311.86 441.73 1310.05 439.92 1310.05 437.74 1310.05 435.55 1311.86 433.75 1314.05 433.75Z" fill="#ffc930" opacity="1" stroke-width="4" stroke="none"/><path d="M1356.06 433.75H1390.1C1392.28 433.75 1394.09 435.55 1394.09 437.74 1394.09 439.92 1392.28 441.73 1390.1 441.73H1356.06C1353.88 441.73 1352.07 439.92 1352.07 437.74 1352.07 435.55 1353.88 433.75 1356.06 433.75Z" fill="#cecece" opacity="1" stroke-width="4" stroke="none"/><path d="M1314.05 412.53H1354.38C1356.57 412.53 1358.38 414.33 1358.38 416.52 1358.38 418.7 1356.57 420.51 1354.38 420.51H1314.05C1311.86 420.51 1310.05 418.7 1310.05 416.52 1310.05 414.33 1311.86 412.53 1314.05 412.53Z" fill="#cecece" opacity="1" stroke-width="4" stroke="none"/><path d="M1339.26 391.31H1365.31C1367.49 391.31 1369.3 393.12 1369.3 395.3 1369.3 397.49 1367.49 399.29 1365.31 399.29H1339.26C1337.07 399.29 1335.27 397.49 1335.27 395.3 1335.27 393.12 1337.07 391.31 1339.26 391.31Z" fill="#cecece" opacity="1" stroke-width="4" stroke="none"/><path d="M1314.05 391.31H1323.29C1325.47 391.31 1327.28 393.12 1327.28 395.3 1327.28 397.49 1325.47 399.29 1323.29 399.29H1314.05C1311.86 399.29 1310.05 397.49 1310.05 395.3 1310.05 393.12 1311.86 391.31 1314.05 391.31Z" fill="#61ccff" opacity="1" stroke-width="4" stroke="none"/><path d="M1380.86 391.31H1390.1C1392.28 391.31 1394.09 393.12 1394.09 395.3 1394.09 397.49 1392.28 399.29 1390.1 399.29H1380.86C1378.67 399.29 1376.86 397.49 1376.86 395.3 1376.86 393.12 1378.67 391.31 1380.86 391.31Z" fill="#cecece" opacity="1" stroke-width="4" stroke="none"/><path d="M1339.26 454.97H1390.1C1392.28 454.97 1394.09 456.77 1394.09 458.96 1394.09 461.14 1392.28 462.95 1390.1 462.95H1339.26C1337.07 462.95 1335.27 461.14 1335.27 458.96 1335.27 456.77 1337.07 454.97 1339.26 454.97Z" fill="#ffc930" opacity="1" stroke-width="4" stroke="none"/><path d="M1314.05 454.97H1323.29C1325.47 454.97 1327.28 456.77 1327.28 458.96 1327.28 461.14 1325.47 462.95 1323.29 462.95H1314.05C1311.86 462.95 1310.05 461.14 1310.05 458.96 1310.05 456.77 1311.86 454.97 1314.05 454.97Z" fill="#cecece" opacity="1" stroke-width="4" stroke="none"/></g><g><path d="M570.05 322.78L568.91 271.33 599.4 316.09 643.02 299.46 611.8 340.14 631.93 377.56 593.21 360.12 546.25 403.65 563.61 346.99 516.66 326.12 570.05 322.78Z" fill="#cecece" opacity="1" stroke-width="4" stroke="none"/><path d="M560.19 333.7L558.97 282.18 589.54 326.94 634.05 311.12 604.3 350.01 622.07 388.49 583.26 370.96 536.3 414.58 553.67 357.92 506.79 336.96 560.19 333.7Z" stroke="#000000" stroke-width="4" stroke-linecap="round" stroke-linejoin="round" opacity="1" fill="none"/></g><g><path d="M1466.72 660.68L1440.02 653.63 1420.49 680.27 1426.73 647.39 1398.25 645.6 1427.6 630.52V598.51L1440.95 626.07 1464.93 615.38 1449.79 638.49 1466.72 660.68Z" stroke="#231f20" stroke-width="4" stroke-linecap="round" stroke-linejoin="round" opacity="1" fill="none"/></g><g><path d="M759.64 583.3L759.58 583.16C750.6 568.01 743.06 557.61 737.49 552.58 731.71 547.41 726.41 546.19 720.84 544.97L720.63 544.9C719.48 544.63 718.25 544.36 716.96 544.02L715.74 543.74C712.88 543 709.42 541.09 706.09 539.26L705.75 539.05C701.47 536.74 697.39 534.57 694.53 534.57 693.45 534.57 692.56 534.84 692.02 535.45 691.47 536 691.2 536.68 691.27 537.49 691.41 541.84 699.49 549.11 699.04 549.96 699.09 550.68 697.18 550.88 695.42 550.88 690.93 550.88 687.67 550.06 683.18 548.84L682.64 548.71C679.92 547.96 676.79 547.14 672.78 546.46 670.27 545.99 667.89 545.78 665.72 545.78 661.91 545.78 659.26 546.6 658.31 548.09 654.84 548.43 652.53 549.45 651.71 551.02 651.31 551.83 651.1 553.19 652.26 555.09 651.44 556.25 651.24 557.54 651.58 558.83 652.87 563.32 661.64 567.33 670.88 571.61L677 574.46C689.5 580.51 707.99 583.16 713.36 583.84H713.5C715.06 590.98 717.37 598.59 719.68 605.39L719.75 605.52 759.64 583.3Z" fill="#996b4d" opacity="1" stroke-width="4" stroke="none"/><path d="M810.58 1010.07V1010.67C816.16 998.32 826.35 986.76 839.42 981.72H839.99C840.28 981.61 840.47 981.28 840.88 981.16L841.61 976.48C847.93 935.77 844.33 901.79 842.77 881.12 841.41 862.3 843.65 845.92 850.04 828.11L850.11 827.91 778.27 827.7V827.84C777.65 835.52 777.25 842.59 777.25 849.04 777.25 874.8 778.95 905.59 780.31 930.33L780.58 935.97C781.19 947.59 781.73 957.65 782 965.2 782.21 972.54 779.83 979.13 774.73 985.25L774.77 985.61C779.31 996.35 781.47 1001.72 789.07 1009.66V1009.63H810.68V1010.9 1011.33Z" fill="#996b4d" opacity="1" stroke-width="4" stroke="none"/><path d="M789.68 1009.51C789 999.52 783.5 990.48 774.94 985.25L774.8 985.18 774.73 985.25C769.91 991.02 763.59 995.31 757.94 999.11 757.47 999.45 757.06 999.72 756.65 1000 756.04 1000.4 755.5 1000.81 754.95 1001.15 752.03 1003.12 749.52 1005.84 747.75 1009.04 747.68 1009.17 747.75 1009.38 747.95 1009.38L789.75 1009.65 789.68 1009.51Z" fill="#61ccff" opacity="1" stroke-width="4" stroke="none"/><path d="M834.75 1009.65C834.81 1009.65 834.88 1009.58 834.88 1009.51 837.4 1000.4 839.44 990.89 840.93 981.03V980.9H839.84C823.74 980.9 810.28 993.47 809.19 1009.58V1009.72L834.75 1009.65Z" fill="#61ccff" opacity="1" stroke-width="4" stroke="none"/><path d="M926.55 1016.17V1016.04C930.02 999.11 939.07 988.29 951.78 982.42H952.58C952.66 982.59 952.85 982.59 952.76 982.25 953.18 982.54 953.09 982.49 952.72 982.49L953.5 981.78 953.74 981.03C959.92 941.34 955.5 908.11 952.31 891.86 950.27 881.46 947.55 872.22 945.37 864.74 941.7 852.31 938.71 841.7 936.88 828.04L868.84 827.91V828.04C869.39 832.53 869.93 836.2 870.48 838.92 873.13 854.35 877.41 873.58 881.55 892.2 887.94 920.75 894.53 950.31 894.94 965.27 895.21 973.01 892.56 980.01 886.79 986.4L886.72 986.54 886.85 986.61C889.85 994.65 893.18 1001.63 893.38 1010.33 893.38 1011.01 893.45 1011.62 893.45 1012.23 893.45 1013.59 893.52 1014.81 893.58 1016.04V1016.17H926.55V1016.17Z" fill="#996b4d" opacity="1" stroke-width="4" stroke="none"/><path d="M947.7 1009.65C950.36 1000 952.33 990.41 953.75 981.1V980.97H953.55C953.01 980.9 952.53 980.9 951.99 980.9 935.88 980.9 922.42 993.47 921.33 1009.58V1009.72L947.7 1009.65Z" fill="#61ccff" opacity="1" stroke-width="4" stroke="none"/><path d="M899.79 1009.51C899.18 1000.2 894.42 991.77 886.81 986.4L886.74 986.34 886.67 986.4C881.98 991.64 875.86 995.71 870.97 998.98 870.22 999.45 869.48 1000 868.73 1000.47L867.71 1001.15C864.72 1003.19 862.61 1004.82 860.84 1008.22L860.3 1009.44C860.23 1009.51 860.3 1009.58 860.37 1009.58L899.79 1009.65V1009.51 1009.51Z" fill="#61ccff" opacity="1" stroke-width="4" stroke="none"/><path d="M891.7 546.37V546.69C891.77 542.32 891.97 539.12 892.18 535.45 892.31 533.34 892.38 531.1 892.52 528.66L892.79 523.9C893.6 507.79 891.9 493.11 891.7 484.95 891.56 477.21 888.3 469.8 882.53 464.16 876.61 458.45 868.73 455.32 860.23 455.32 843.72 455.32 833.59 455.66 826.59 466.19 822.44 472.45 822.04 483.39 821.7 491.41 821.56 494.94 821.36 498.95 820.88 501.74 819.32 510.37 818.57 519.34 823.53 526.55 827.68 532.46 834.41 533.68 839.37 533.68 840.86 533.68 842.09 533.62 843.17 533.41L842.27 547.89 891.7 546.91Z" fill="#996b4d" opacity="1" stroke-width="4" stroke="none"/><path d="M854.8 528.93C851.33 530.76 843.31 533.41 843.17 533.41L842.7 541.3 854.8 528.93Z" fill="#191919" opacity="0.2" stroke-width="4" stroke="none"/><path d="M827.34 495.15C828.56 495.15 829.58 494.13 829.58 492.91 829.58 491.68 828.56 490.66 827.34 490.66 826.11 490.66 825.09 491.68 825.09 492.91 825.09 494.13 826.11 495.15 827.34 495.15Z" fill="#231f20" opacity="1" stroke-width="4" stroke="none"/><path d="M843.04 495.9C844.26 495.9 845.28 494.88 845.28 493.65 845.28 492.43 844.26 491.41 843.04 491.41 841.81 491.41 840.79 492.43 840.79 493.65 840.79 494.88 841.81 495.9 843.04 495.9Z" fill="#231f20" opacity="1" stroke-width="4" stroke="none"/><path d="M902.58 467.83C915.35 467.83 925.75 457.43 925.75 444.65 925.75 431.87 915.35 421.47 902.58 421.47 889.8 421.47 879.4 431.87 879.4 444.65 879.4 457.43 889.8 467.83 902.58 467.83Z" fill="#231f20" opacity="1" stroke-width="4" stroke="none"/><path d="M937.65 844.49C938.33 844.49 938.94 844.49 939.62 844.42H939.75V844.29C938.39 838.17 937.44 833.07 936.83 828.04 935.81 820.5 935.27 812.68 935.2 804.8 935.13 792.09 935.81 779.31 937.24 766.87 940.23 738.8 937.44 709.58 929.15 682.39 922.96 662 915.62 649.36 914.81 647.93L914.74 647.8 878.18 647.8C878.11 647.73 878.04 647.73 877.97 647.73L823.87 646.64 823.33 648.34C823.06 649.09 791.59 730.99 780.78 804.73 779.56 813.43 778.74 820.77 778.13 827.84 777.72 833.34 777.31 838.17 777.25 842.79V842.86L777.38 842.93C778.06 843.2 778.61 843.34 779.15 843.47 780.98 843.95 782.75 844.22 784.45 844.22 792.27 844.22 799.47 839.53 802.67 832.46 803.01 831.65 804.16 831.65 804.5 832.46 806.95 837.76 811.57 841.84 817.28 843.47 819.18 843.95 820.88 844.22 822.65 844.22 830.26 844.22 837.26 839.8 840.59 833.07 841.07 832.05 842.56 832.05 843.04 833.07 845.55 838.1 850.04 841.91 855.54 843.47 857.45 843.95 859.15 844.22 860.91 844.22 868.8 844.22 876.07 839.39 879.26 832.33 879.6 831.58 880.62 831.58 880.96 832.33 883.41 837.76 888.03 841.84 893.81 843.54 895.71 844.02 897.41 844.29 899.18 844.29 907.88 844.29 915.83 838.44 918.34 830.08 921.06 838.58 928.95 844.49 937.65 844.49Z" fill="#cecece" opacity="1" stroke-width="4" stroke="none"/><path d="M937.65 727.52C933.91 680.42 915.56 649.23 914.81 647.93L914.74 647.87H878.18L878.11 647.73H846.91L847.25 648.07C847.66 648.34 888.03 675.53 903.66 688.85 920.11 702.85 934.66 723.51 937.37 727.52 937.44 727.66 937.58 727.86 937.58 727.86L937.71 728.2 937.65 727.52Z" fill="#030303" opacity="0.2" stroke-width="4" stroke="none"/><path d="M831.89 1019.84C832.77 1017.12 833.52 1014.4 834.27 1011.82L834.61 1010.66 834.95 1009.5C834.95 1009.44 834.88 1009.37 834.81 1009.37L748.09 1008.89C747.95 1008.89 747.89 1008.96 747.82 1009.03L747.48 1009.78C745.85 1012.9 745.03 1016.17 745.24 1019.77V1019.9L831.89 1019.84Z" fill="#050708" opacity="1" stroke-width="4" stroke="none"/><path d="M843.17 533.41C846.23 532.19 849.36 531.17 852.69 529.88" stroke="#000000" stroke-width="4" stroke-linecap="round" stroke-linejoin="round" opacity="1" fill="none"/><path d="M833.73 512.28C836.44 512.89 839.3 511.53 840.59 509.08" stroke="#191919" stroke-width="4" stroke-linecap="round" stroke-linejoin="round" opacity="1" fill="none"/><path d="M832.91 498.07C832.03 500.38 831.35 502.08 833.66 503.03" stroke="#191919" stroke-width="4" stroke-linecap="round" stroke-linejoin="round" opacity="1" fill="none"/><path d="M918.48 831.58C915.08 803.03 914.67 787.94 918.07 756 921.47 724.06 915.01 692.25 910.73 683.34" stroke="#000000" stroke-width="4" stroke-linecap="round" stroke-linejoin="round" opacity="1" fill="none"/><path d="M652.33 555.91C660.14 555.23 677.13 563.11 692.15 565.02 692.15 565.02 720.84 555.91 731.98 565.02" stroke="#191919" stroke-width="4" stroke-linecap="round" stroke-linejoin="round" opacity="1" fill="none"/><path d="M658.4 548.09C662.11 548.71 685.63 555.23 692.15 555.91" stroke="#191919" stroke-width="4" stroke-linecap="round" stroke-linejoin="round" opacity="1" fill="none"/><path d="M759.3 582.76L759.51 583.03C764.88 592.14 768.62 599.41 769.91 602.13 770.25 601.51 778.67 587.45 791.72 573.44 803.96 560.26 822.85 544.49 843.38 544.42H915.69 915.83 915.9C931.53 548.23 942.2 572.97 942.27 573.17 942.34 573.31 952.19 592.27 958.78 613.95 969.86 650.18 963.74 666.01 956.61 672.95 949.27 680.08 937.65 683.68 922.01 683.68 910.6 683.68 896.53 681.58 881.3 677.64L880.62 677.43 883.21 648.07 823.6 648 820.68 622.58C816.06 629.11 808.44 638.49 798.93 646.24 788.19 654.94 777.72 659.35 767.8 659.35H767.26C753.87 659.15 734.7 649.57 719.48 604.98L719.2 604.03 759.3 582.76Z" fill="#3c2c5b" opacity="1" stroke-width="4" stroke="none"/><path d="M911.61 611.23L902.44 613.95 909.85 630.67 912.77 632.98 911.61 611.23Z" fill="#000000" opacity="0.2" stroke-width="4" stroke="none"/><path d="M805.25 640.73C810.82 635.29 815.92 629.31 820.68 622.65L818.91 603.21H818.64L804.98 640.59 805.25 640.73Z" fill="#000000" opacity="0.2" stroke-width="4" stroke="none"/><path d="M769.91 602.13L768.96 608.99" stroke="#000000" stroke-width="4" stroke-linecap="round" stroke-linejoin="round" opacity="1" fill="none"/><path d="M820.88 697.62C825.57 697.62 838.69 683.41 842.56 679L842.63 678.93C842.97 678.93 843.31 678.93 843.58 679 843.92 679 844.26 679 844.6 679 852.14 679 859.55 676.89 866.01 672.88 866.55 673.08 872.4 675.19 881.1 677.57L881.3 677.36 884.7 634.41H884.56C872.74 635.09 855.61 636.38 842.56 639.44 831.28 642.09 820.61 646.85 811.64 653.3 804.77 658.27 799.13 664.11 796.48 668.94 793.69 674.1 794.31 677.3 795.33 679.06 795.8 679.81 796.21 680.22 796.41 680.35 795.94 682.67 796.28 684.64 797.36 685.93 798.79 687.63 800.97 687.9 801.65 687.97H801.78C802.87 690.69 804.91 692.04 807.83 692.04 812.52 692.04 818.3 688.51 820.54 687.01 820 688.17 817.35 694.22 818.84 696.67 819.25 697.35 819.93 697.62 820.88 697.62Z" fill="#996b4d" opacity="1" stroke-width="4" stroke="none"/><path d="M820.88 686.68L833.11 675.12" stroke="#191919" stroke-width="4" stroke-linecap="round" stroke-linejoin="round" opacity="1" fill="none"/><path d="M801.85 688.03C801.85 688.03 818.16 672.4 827 665.61" stroke="#191919" stroke-width="4" stroke-linecap="round" stroke-linejoin="round" opacity="1" fill="none"/><path d="M796.41 680.56C801.17 674.44 814.7 662.07 821.22 657.38" stroke="#191919" stroke-width="4" stroke-linecap="round" stroke-linejoin="round" opacity="1" fill="none"/><path d="M960.75 620.75C975.77 618.51 986.65 611.71 994.06 600.49 1002.82 587.17 1003.91 570.32 1001.13 559.58 996.98 543.68 988.62 531.99 976.39 524.92 965.24 518.46 953.62 517.51 947.7 517.51 944.58 517.51 942.27 517.78 941.32 517.92 938.26 499.84 923.78 493.38 911.27 493.38 904.48 493.38 897.95 495.28 894.28 498.27 894.49 491.07 894.56 484.21 894.49 479.45 894.35 471.7 891.09 464.29 885.31 458.65 879.4 452.94 871.52 449.82 863.02 449.82 846.5 449.82 833.59 455.59 826.59 466.13 825.23 468.3 824.21 470.61 823.67 473.13V473.2L823.74 473.26C823.74 473.26 823.8 473.26 823.87 473.33 825.71 474.21 830.8 476.25 839.3 476.25 845.23 476.38 855.92 474.34 855.75 474.53 853.97 481.38 855.12 484.9 855.64 487.39L857.01 492.35 858.2 495.76C858.49 496.84 865.6 491.27 871.99 491.27 875.73 491.27 878.45 492.77 879.94 495.83 884.5 505.07 872.4 515.67 869.88 517.71 869.82 517.78 869.82 517.78 869.82 517.78L869.75 517.85V517.92C875.52 567.12 909.17 574.46 928.74 574.46 935.33 574.46 940.3 573.58 942.06 573.24 942.88 574.53 960.75 620.75 960.75 620.75Z" fill="#231f20" opacity="1" stroke-width="4" stroke="none"/><path d="M884.09 634.41C899.72 633.73 920.79 633.66 920.79 633.66" stroke="#000000" stroke-width="4" stroke-linecap="round" stroke-linejoin="round" opacity="1" fill="none"/><path d="M929.08 683.41C912.57 684.7 894.01 680.97 881.3 677.64" stroke="#000000" stroke-width="4" stroke-linecap="round" stroke-linejoin="round" opacity="1" fill="none"/><path d="M902.44 613.95L911.21 633.39" stroke="#000000" stroke-width="4" stroke-linecap="round" stroke-linejoin="round" opacity="1" fill="none"/><path d="M944.65 1019.84C945.53 1017.12 946.28 1014.41 947.02 1011.82L947.43 1010.6 947.7 1009.78C947.77 1009.58 947.64 1009.38 947.43 1009.38H860.37L860.3 1009.44C858.67 1012.57 857.92 1016.1 858.13 1019.71V1019.84H944.65Z" fill="#050708" opacity="1" stroke-width="4" stroke="none"/><path d="M820.74 623.13L818.84 605.12" stroke="#000000" stroke-width="4" stroke-linecap="round" stroke-linejoin="round" opacity="1" fill="none"/></g><g><path d="M624.42 737.55H804.17C810.91 737.55 817.58 738.88 823.8 741.45 830.02 744.03 835.68 747.81 840.44 752.57 845.21 757.33 848.98 762.99 851.55 769.21 854.13 775.43 855.46 782.1 855.46 788.84V968.59C855.46 975.33 854.13 982 851.55 988.22 848.98 994.44 845.21 1000.1 840.44 1004.86 835.68 1009.62 830.02 1013.4 823.8 1015.97 817.58 1018.55 810.91 1019.87 804.17 1019.87H624.42C617.68 1019.87 611.01 1018.55 604.79 1015.97 598.57 1013.4 592.91 1009.62 588.15 1004.86 583.39 1000.1 579.61 994.44 577.03 988.22 574.46 982 573.13 975.33 573.14 968.59V788.84C573.13 782.1 574.46 775.43 577.03 769.21 579.61 762.99 583.39 757.33 588.15 752.57 592.91 747.81 598.57 744.03 604.79 741.45 611.01 738.88 617.68 737.55 624.42 737.55V737.55Z" fill="#ffc930" opacity="1" stroke-width="4" stroke="none"/></g><g><path d="M668.44 885.19H604.9L653.96 826.02V929.65" stroke="#3c2c5b" stroke-width="4" stroke-linecap="round" stroke-linejoin="round" opacity="1" fill="none"/><path d="M820.2 885.19H756.56L805.73 826.02V929.65" stroke="#3c2c5b" stroke-width="4" stroke-linecap="round" stroke-linejoin="round" opacity="1" fill="none"/><path d="M707.61 826.02H718.87C730.94 826.02 740.7 835.79 740.7 847.85V906.79C740.7 918.85 730.94 928.62 718.87 928.62H707.61C695.55 928.62 685.78 918.85 685.78 906.79V847.85C685.78 835.79 695.55 826.02 707.61 826.02Z" stroke="#3c2c5b" stroke-width="4" stroke-linecap="round" stroke-linejoin="round" opacity="1" fill="none"/></g><g><path d="M145.85 986.35L230.05 1021.86C230.12 1021.86 230.12 1021.86 230.12 1021.79 231.31 1018.58 231.87 1015.16 231.8 1011.81L231.52 1010.9 147.53 975.6C147.46 975.6 147.32 976.23 147.32 976.23 146.06 982.51 145.78 985.86 145.85 986.35 145.78 986.35 145.78 986.35 145.85 986.35Z" fill="#61ccff" opacity="1" stroke-width="4" stroke="none"/><path d="M147.32 976.16C149.34 965.21 152.13 954.26 155.2 943.51 155.76 941.7 156.39 939.61 157.01 937.65L157.08 937.58 190.64 938.07 217.92 948.47C217.99 948.47 217.99 948.54 217.99 948.54 215.68 953.07 213.73 958.09 212.47 962.98 211.43 967.3 211.29 970.93 212.33 973.93 217.78 989.21 231.17 997.65 231.8 1011.74 231.8 1011.81 231.8 1011.74 231.8 1011.74L147.32 976.16Z" fill="#cecece" opacity="1" stroke-width="4" stroke="none"/><path d="M310.14 1021.93H401.6C401.67 1021.93 401.67 1021.93 401.67 1021.86 401.53 1018.51 400.62 1015.09 399.15 1012.02 399.15 1012.02 399.15 1011.95 399.09 1011.95L351.23 1007.97 307.56 1011.95C307.49 1011.95 307.49 1012.02 307.49 1012.02 308.88 1018.23 309.93 1021.51 310.14 1021.93 310.07 1021.93 310.07 1021.93 310.14 1021.93Z" fill="#61ccff" opacity="1" stroke-width="4" stroke="none"/><path d="M361.55 963.33C361.62 963.33 361.62 963.33 361.55 963.33 361.55 970.02 362.17 975.6 363.71 979.79 364.34 981.6 365.31 983.28 366.57 984.74 377.45 996.74 393.15 999.18 399.15 1011.95H307.48C305.18 1001.28 303.23 990.74 302.04 980 301.9 978.67 301.69 977.07 301.55 975.53 301.55 975.53 301.55 975.46 301.62 975.46L330.15 964.16 361.55 963.33Z" fill="#cecece" opacity="1" stroke-width="4" stroke="none"/><path d="M382.69 496.76C383.95 499.55 379.55 503.25 379.13 503.6V503.67C381.64 511.62 383.04 521.25 379.55 526.76 375.37 533.67 366.65 535.62 356.53 534.3 356.46 534.3 356.46 534.3 356.46 534.37L357.23 538.9 319 545.74C318.93 545.74 318.93 545.74 318.93 545.67 318.44 543.64 312.37 540.16 312.02 537.92 311.67 536.11 311.47 534.16 311.12 532.2 309.16 521.25 309.37 508.9 307.98 500.67 305.4 485.11 302.95 473.6 320.95 461.95 331.63 455.05 344.6 454 356.46 457.07 356.46 457.07 372.51 460.21 373.2 479.46 373.2 479.53 376.48 492.93 376.76 493.76 376.76 493.76 376.76 493.83 376.83 493.83 377.18 493.97 381.78 494.53 382.69 496.76Z" fill="#faa378" opacity="1" stroke-width="4" stroke="none"/><path d="M357.09 538.9C356.11 538.69 348.16 536.81 342.3 529.76 342.23 529.69 342.3 529.62 342.37 529.62 348.37 532.76 355.76 534.16 356.32 534.3 356.32 534.3 356.39 534.3 356.39 534.37L357.16 538.83C357.23 538.83 357.16 538.9 357.09 538.9Z" fill="#000000" opacity="0.15" stroke-width="4" stroke="none"/><path d="M275.68 576.78C283.35 558.01 296.89 546.36 312.65 543.16 312.72 543.16 312.72 543.09 312.72 543.09L311.95 537.99C311.95 537.92 311.95 537.92 312.02 537.92L356.95 538.06C357.02 538.06 357.09 538.13 357.09 538.2L357.93 542.6C357.93 542.67 357.93 542.67 358 542.67 358.83 542.74 368.25 543.29 380.6 546.09 399.36 550.27 425.04 584.31 445.27 608.59H445.34L476.03 594.71H476.1L491.45 614.24 497.59 642.36V642.43C481.89 653.1 461.8 663.98 444.64 663.63 415.76 662.94 390.09 634.26 388.34 632.31 388.27 632.24 388.2 632.31 388.2 632.38L381.64 667.82C381.64 667.82 381.64 668.03 381.58 668.03L301.98 669.14 284.33 684.35C284.33 684.35 284.33 684.35 284.26 684.35 283.63 684.35 272.61 684 266.54 669.14 262.56 658.4 267.79 596.24 275.68 576.78Z" fill="#61ccff" opacity="1" stroke-width="4" stroke="none"/><path d="M367.41 609.85L369.79 667.82C369.79 667.89 369.79 667.89 369.86 667.89H381.64C381.64 667.89 381.71 667.89 381.71 667.82L388.27 632.24V632.17L367.55 609.71C367.48 609.71 367.41 609.78 367.41 609.85Z" fill="#000000" opacity="0.2" stroke-width="4" stroke="none"/><path d="M373.13 479.53C364.62 489.93 350.32 500.11 349.48 500.74H349.42C348.58 500.04 333.09 487.63 325 495.23 314.26 504.86 329.39 519.23 334.07 521.67 334.14 521.67 334.14 521.74 334.07 521.81 324.44 531.78 312.02 532.2 311.12 532.2 311.12 532.2 311.05 532.2 311.05 532.13 309.09 521.81 306.58 508.41 305.4 501.37 302.81 485.81 301.91 469.14 319.84 457.49 330.51 450.58 345.44 450.3 357.23 453.37H357.3C357.79 452.74 365.39 443.4 376.13 449.19 385.48 455.33 381.92 468.79 373.13 479.53Z" fill="#000000" opacity="1" stroke-width="4" stroke="none"/><path d="M368.8 498.58C367.65 498.58 366.71 497.64 366.71 496.49 366.71 495.33 367.65 494.39 368.8 494.39 369.96 494.39 370.89 495.33 370.89 496.49 370.89 497.64 369.96 498.58 368.8 498.58Z" fill="#000000" opacity="1" stroke-width="4" stroke="none"/><path d="M552.91 569.32C552.84 569.32 552.77 569.25 552.84 569.18 556.68 566.94 557.72 558.85 552.91 560.32 536.44 565.27 517.4 575.25 502.82 582.5L502.75 582.57 508.54 606.29 521.24 622.96C521.24 622.96 521.24 622.96 521.31 622.96 529.61 623.24 542.58 619.96 551.93 612.78 551.93 612.78 551.93 612.78 552 612.78 565.88 611.66 580.05 609.78 580.67 606.36 581.44 602.24 564.84 601.82 559.81 601.75 559.74 601.75 559.74 601.62 559.81 601.62 565.05 599.73 594.28 597.08 585.56 585.43V585.36C589.39 579.5 584.02 576.5 582.28 576.36 582.21 576.36 582.21 576.29 582.21 576.29 582.56 575.59 584.79 571.27 581.72 568.48 579.63 566.66 557.58 568.62 552.91 569.32Z" fill="#faa378" opacity="1" stroke-width="4" stroke="none"/><path d="M502.82 582.57L521.24 622.96V623.03C513.35 630.08 506.45 636.43 497.66 642.29 497.59 642.29 497.59 642.29 497.59 642.29L476.1 594.71C476.1 594.64 476.1 594.64 476.1 594.64L502.68 582.5C502.82 582.5 502.82 582.5 502.82 582.57Z" fill="#bdeaff" opacity="1" stroke-width="4" stroke="none"/><path d="M302.05 667.82L293.05 627.29C293.05 627.22 292.91 627.22 292.91 627.29L291.44 679.19C291.44 679.26 291.51 679.26 291.58 679.26L302.05 667.82Z" fill="#000000" opacity="0.2" stroke-width="4" stroke="none"/><path d="M165.25 912.96C168.59 903.54 172.08 895.03 175.71 887.22 190.64 854.78 206.41 835.52 216.03 821.85 235.15 794.92 243.31 753.42 259.77 720 275.89 687 301.28 668.38 302.05 667.82 302.05 667.82 302.05 667.82 302.12 667.82H325.07L381.58 667.89C381.64 667.89 381.64 667.89 381.64 667.96 381.85 670.4 389.18 751.6 378.65 850.87 376.34 872.57 370.9 897.96 366.79 921.05 363.93 936.96 361.83 951.61 361.62 963.26 361.62 963.26 361.62 963.33 361.55 963.33L325 970.79 301.63 975.39C301.56 975.39 301.56 975.39 301.56 975.32 300.65 966.88 299.82 957.54 299.19 946.65 298.84 937.58 298.77 929.07 298.91 921.05 299.82 884.29 307.07 859.73 310.84 842.99 314.4 827.01 312.3 808.67 309.58 789.69 309.44 789.69 309.58 789.69 309.44 789.69 299.12 811.11 287.68 833.5 275.61 855.34 265.91 872.99 252.52 892.52 240.31 910.87 231.31 924.54 223.29 937.31 217.99 948.4L217.92 948.47 157.08 937.58C157.01 937.58 157.01 937.51 157.01 937.51 159.32 930.19 161.97 922.17 165.25 912.96Z" fill="#3c2c5b" opacity="1" stroke-width="4" stroke="none"/><path d="M291.23 826.11C291.16 826.18 291.09 826.18 291.09 826.04L295.7 776.72C296.61 766.88 298.56 757.04 301.56 747.62L304.07 739.67C304.07 739.6 304.21 739.6 304.21 739.67 304.28 756 307.14 772.95 309.58 789.48 309.58 789.48 309.58 789.48 309.58 789.55 303.72 801.55 297.58 813.83 291.23 826.11Z" fill="#000000" opacity="0.2" stroke-width="4" stroke="none"/><path d="M368.6 508.9C369.3 510.86 372.51 512.39 374.46 511.69" stroke="#000000" stroke-width="4" stroke-linecap="round" stroke-linejoin="round" opacity="1" fill="none"/><path d="M342.37 529.62C346.62 531.78 354.3 533.95 356.46 534.37" stroke="#000000" stroke-width="4" stroke-linecap="round" stroke-linejoin="round" opacity="1" fill="none"/><path d="M334 505.69L340.35 510.79" stroke="#000000" stroke-width="4" stroke-linecap="round" stroke-linejoin="round" opacity="1" fill="none"/><path d="M388.33 632.31L367.55 609.78" stroke="#000000" stroke-width="4" stroke-linecap="round" stroke-linejoin="round" opacity="1" fill="none"/><path d="M582.21 576.43C582.21 576.43 559.61 578.31 544.96 581.52" stroke="#000000" stroke-width="4" stroke-linecap="round" stroke-linejoin="round" opacity="1" fill="none"/><path d="M552.91 569.18L541.75 571.06" stroke="#000000" stroke-width="4" stroke-linecap="round" stroke-linejoin="round" opacity="1" fill="none"/><path d="M585.49 585.57C585.49 585.57 561.42 590.38 548.93 592.76" stroke="#000000" stroke-width="4" stroke-linecap="round" stroke-linejoin="round" opacity="1" fill="none"/><path d="M309.44 789.76C306.65 770.86 304.49 758.44 304.07 739.74" stroke="#000000" stroke-width="4" stroke-linecap="round" stroke-linejoin="round" opacity="1" fill="none"/><path d="M196.92 965.84L211.85 965.77" stroke="#61ccff" stroke-width="4" stroke-linecap="round" stroke-linejoin="round" opacity="1" fill="none"/><path d="M198.31 977.49L212.75 974.91" stroke="#61ccff" stroke-width="4" stroke-linecap="round" stroke-linejoin="round" opacity="1" fill="none"/><path d="M350.53 985.51L363.72 979.79" stroke="#61ccff" stroke-width="4" stroke-linecap="round" stroke-linejoin="round" opacity="1" fill="none"/><path d="M356.46 995.7L369.02 987.25" stroke="#61ccff" stroke-width="4" stroke-linecap="round" stroke-linejoin="round" opacity="1" fill="none"/><path d="M362.87 667.96C362.87 667.96 362.52 772.04 353.45 837.41 344.39 902.77 334.97 951.12 336.78 968.14" stroke="#000000" stroke-width="4" stroke-linecap="round" stroke-linejoin="round" opacity="1" fill="none"/><path d="M302.05 667.82L293.05 627.29" stroke="#000000" stroke-width="4" stroke-linecap="round" stroke-linejoin="round" opacity="1" fill="none"/></g><g><path d="M1184.19 560.65C1181.38 555.33 1160.84 523.55 1170.38 524.71 1173 524.71 1175.2 526.97 1177.47 529.35 1179.73 531.68 1182.3 534.43 1185.84 535.34 1187.19 535.65 1189.2 536.02 1189.69 534.79 1190.24 533.51 1188.71 530.76 1185.78 527.83 1182.85 524.83 1178.51 523.55 1174.65 522.32 1170.68 521.04 1167.56 520.06 1167.56 517.8 1167.44 513.46 1177.16 513.77 1180.09 514.01 1212.31 510.47 1210.96 534.92 1224.04 558.94 1224.04 559 1224.04 559 1223.98 559.06L1191.22 579.9 1187.06 574.71 1184.19 560.65Z" fill="#e5bb98" opacity="1" stroke-width="4" stroke="none"/><path d="M1009.43 1006.13C1008.33 997.69 1007.47 989.44 1007.11 980.88 1006.74 972.57 1006.8 964.07 1007.11 955.76H1066.64C1065.3 967.62 1066.21 976.11 1070.8 982.9 1073.73 987.24 1078.07 990.78 1084.31 994.63 1089.26 998.06 1091.27 1003.99 1093.84 1008.2 1093.84 1008.14 1009.31 1006.31 1009.43 1006.13Z" fill="#e5bb98" opacity="1" stroke-width="4" stroke="none"/><path d="M1121.29 1003.92C1121.29 1003.92 1121.23 1003.92 1121.29 1003.92 1118.35 995.55 1114.75 989.25 1112.79 980.64 1110.96 972.45 1109.55 964.13 1108.57 955.76 1108.57 955.7 1108.57 955.7 1108.63 955.7L1141.64 952.89 1173.67 955.7C1173.67 955.7 1173.73 955.7 1173.73 955.76 1173.85 957.23 1173.98 958.33 1174.16 959.36 1179.17 989.87 1197.81 988.34 1209.67 1006 1209.67 1006.06 1209.67 1006.13 1209.61 1006.13 1207.29 1006.25 1175.75 1009.18 1151.24 1008.57 1134.55 1008.2 1121.9 1004.23 1121.29 1003.92Z" fill="#e5bb98" opacity="1" stroke-width="4" stroke="none"/><path d="M1108.57 955.76C1106.13 934.43 1105.64 921.1 1106.56 906.43 1106.86 901.48 1107.41 895.67 1107.96 890.05L1147.45 819.88 1174.4 890.6C1174.47 890.78 1174.47 890.91 1174.47 891.09 1173.55 919.57 1172.75 944.21 1173.73 955.76H1108.57Z" fill="#231f20" opacity="1" stroke-width="4" stroke="none"/><path d="M1106.56 906.43C1106.81 902.03 1107.23 897.2 1107.91 890.78L1147.45 819.82 1174.41 890.6C1174.47 890.72 1174.47 890.84 1174.47 891.03L1174.35 894.27 1106.56 906.43Z" fill="#000000" opacity="0.2" stroke-width="4" stroke="none"/><path d="M1007.11 955.76C1007.78 939.13 1009.92 922.38 1013.16 907.29 1014.44 901.48 1016.83 893.23 1018.41 888.03L1081.74 890.54C1081.31 891.94 1080.82 893.72 1080.46 895.12 1072.39 924.22 1067.93 944.57 1066.64 955.88 1065.54 955.82 1007.11 955.76 1007.11 955.76Z" fill="#231f20" opacity="1" stroke-width="4" stroke="none"/><path d="M1013.16 907.29C1014.38 901.66 1016.03 895.98 1017.62 890.72L1081.98 890.48C1081.62 891.88 1081.07 893.66 1080.7 895.06L1013.16 907.29Z" fill="#000000" opacity="0.2" stroke-width="4" stroke="none"/><path d="M1058.82 1007.41C1058.82 997.45 1064.39 989.19 1070.8 982.9 1073.74 986.99 1078.08 990.17 1084.37 994.57 1089.26 997.93 1093.05 1001.91 1095.62 1006.06 1095.68 1006.13 1095.62 1006.25 1095.56 1006.25L1058.82 1007.41Z" fill="#61ccff" opacity="1" stroke-width="4" stroke="none"/><path d="M1171.71 1006.13C1171.71 996.53 1177.58 988.7 1184.25 982.47 1188.46 987.36 1193.84 991.39 1198.49 994.63 1203.44 998.06 1207.23 1001.91 1209.8 1006.13V1006.19L1171.78 1007.53V1006.13H1171.71Z" fill="#61ccff" opacity="1" stroke-width="4" stroke="none"/><path d="M1009.37 1006.13C1008.63 1000.75 1007.6 991.82 1007.11 980.94 1007.11 980.88 1007.17 980.88 1007.17 980.88 1022.08 982.59 1035.04 992.25 1040.91 1006.13L1025.32 1009.36 1009.73 1006.49C1009.55 1006.49 1009.37 1006.31 1009.37 1006.13Z" fill="#61ccff" opacity="1" stroke-width="4" stroke="none"/><path d="M1120.06 1006.06C1117.31 997.87 1114.26 988.95 1112.85 980.7 1112.85 980.64 1112.85 980.64 1112.91 980.64 1129.66 980.45 1145.37 991.21 1151.48 1006 1151.48 1006.06 1151.48 1006.06 1151.42 1006.06 1150.32 1006.25 1137.97 1008.51 1137.67 1008.57L1120.06 1006.06C1120.06 1006.13 1120.06 1006.13 1120.06 1006.06Z" fill="#61ccff" opacity="1" stroke-width="4" stroke="none"/><path d="M1233.21 577.52C1233.21 577.52 1233.21 577.46 1233.14 577.46 1233.08 577.4 1232.9 577.52 1232.9 577.52L1219.21 576.48 1209.8 578.99C1209.67 579.05 1206.37 586.26 1206.37 586.26 1201.85 580.45 1192.19 568.29 1184.12 560.65 1176.6 554.17 1165.17 547.39 1158.7 545.61H1158.63C1138.71 542.56 1122.33 543.78 1095 544.09 1094.94 544.09 1094.94 544.09 1094.88 544.09 1089.93 545.61 1079.36 550.75 1071.84 557.29 1069.09 559.67 1066.58 562.48 1065.17 565.05 1054.36 582.41 1048.67 619.27 1046.72 634.3 1044.27 653.68 1048.79 669.94 1054.29 682.41 1056.74 687.85 1059.31 692.56 1061.63 696.47 1051.97 720 1046.35 748.49 1046.1 764.56 1041.83 824.4 1037.06 836.57 1029.23 856.68 1025.87 865.17 1021.9 875.56 1017.38 890.72L1130.58 890.78C1130.76 890.78 1130.94 890.66 1131.01 890.48L1149.16 839.32C1149.34 838.83 1150.02 838.95 1150.08 839.44L1154.84 890.17C1154.91 890.54 1155.15 890.78 1155.52 890.78L1174.47 890.97C1175.14 870.92 1176.05 848.3 1176.18 831.37 1176.79 742.37 1154.54 665.85 1154.29 665.05 1154.6 663.09 1155.88 655.21 1157.41 645.61 1157.9 642.43 1158.45 639.19 1158.94 636.08 1160.22 628.19 1161.38 621.22 1161.75 618.78 1161.81 618.41 1162.3 618.23 1162.55 618.53 1181.07 636.63 1219.76 657.96 1238.22 634 1248.73 619.39 1241.82 596.65 1233.21 577.52Z" fill="#9e76dd" opacity="1" stroke-width="4" stroke="none"/><path d="M1061.2 695.55C1057.72 689.74 1057.17 688.58 1054.36 682.41 1054.6 682.23 1064.32 674.59 1066.76 656.49 1068.11 648.49 1068.72 627.52 1072.33 624.59 1072.51 624.4 1072.88 624.52 1072.94 624.77 1073.92 629.48 1080.7 665.66 1080.7 665.66L1061.2 695.55Z" fill="#000000" opacity="0.2" stroke-width="4" stroke="none"/><path d="M1011.45 1017.31C1011.08 1016.21 1010.28 1012.36 1009.43 1006.37 1009.43 1006.25 1009.55 1006.06 1009.67 1006.06H1095.49C1095.55 1006.06 1095.68 1006.13 1095.74 1006.19 1098.98 1011.69 1099.1 1016.15 1099.1 1017.19 1099.1 1017.31 1098.98 1017.43 1098.85 1017.43H1011.69C1011.57 1017.49 1011.51 1017.43 1011.45 1017.31Z" fill="#172830" opacity="1" stroke-width="4" stroke="none"/><path d="M1124.34 1017.31C1123.43 1015.11 1122.14 1011.99 1120.13 1006.25 1120.13 1006.19 1120.13 1006.19 1120.19 1006.19 1123.24 1006.19 1207.9 1006.19 1209.8 1006.19 1209.8 1006.19 1209.86 1006.19 1209.86 1006.25 1213.4 1012.3 1213.34 1015.78 1213.28 1017.13 1213.28 1017.37 1213.03 1017.56 1212.79 1017.56 1206.07 1017.56 1129.17 1017.49 1124.59 1017.49 1124.47 1017.43 1124.34 1017.37 1124.34 1017.31Z" fill="#172830" opacity="1" stroke-width="4" stroke="none"/><path d="M1093.29 535.83C1090.97 525.32 1087.18 506.98 1085.83 499.83 1084.12 491.03 1082.84 474.04 1094.15 464.75 1104.91 455.7 1119.09 451.79 1132.84 457.35 1142.74 460.96 1150.02 465.85 1153.68 475.63 1155.03 479.11 1156.25 482.9 1157.59 486.81 1157.66 486.93 1157.78 487.06 1157.96 487.12 1166.7 488.28 1165.79 491.58 1161.63 497.45 1161.51 497.57 1161.51 497.81 1161.57 498 1165.91 511.69 1166.4 519.64 1161.81 526.05 1158.94 530.03 1155.58 532.35 1147.26 532.35 1144.21 532.35 1140.3 531.86 1138.1 531L1138.16 536.99 1093.29 535.83Z" fill="#e5bb98" opacity="1" stroke-width="4" stroke="none"/><path d="M1085.83 499.77C1084.73 478.93 1083.21 455.27 1117.93 453.32 1126.12 453.38 1129.84 453.62 1140.42 456.68 1140.48 456.68 1140.48 456.68 1140.48 456.74 1146.41 460.65 1150.99 467.07 1153.68 475.69L1117.56 496.71 1085.83 499.77Z" fill="#ffffff" opacity="1" stroke-width="4" stroke="none"/><path d="M1150.02 487.3C1152.58 487.36 1152.58 491.15 1150.02 491.21 1147.45 491.15 1147.45 487.36 1150.02 487.3Z" fill="#231f20" opacity="1" stroke-width="4" stroke="none"/><path d="M1151.48 607.78L1161.75 617.74C1161.87 617.86 1161.93 617.98 1161.87 618.17L1158.94 636.08 1151.24 607.9C1151.24 607.78 1151.36 607.72 1151.48 607.78Z" fill="#000000" opacity="0.2" stroke-width="4" stroke="none"/><path d="M1208.76 589.26C1208.95 589.5 1209.19 589.56 1209.43 589.44L1233.08 577.58C1233.14 577.58 1233.14 577.46 1233.14 577.46 1230.39 571.22 1227.22 565.11 1224.17 559.12 1224.1 559.06 1224.04 559 1223.92 559.06L1196.11 572.94C1195.86 573.06 1195.8 573.36 1195.99 573.55 1200.75 578.68 1207.3 587.24 1208.76 589.26Z" fill="#231f20" opacity="1" stroke-width="4" stroke="none"/><path d="M1108.21 572.08C1091.95 572.32 1078.38 564.62 1071.9 557.29 1084.43 543.17 1086.63 540.78 1082.47 507.96 1081.19 495.74 1077.46 471.77 1091.46 460.96 1103.56 450.93 1125.93 448.18 1140.3 456.62 1140.36 456.68 1140.42 456.74 1140.36 456.86 1130.94 470.43 1126.91 489.26 1128.01 517.5 1128.26 521.96 1130.15 526.6 1135.53 529.66 1136.87 530.45 1138.46 531.13 1140.24 531.68L1141.64 542.92C1141.64 543.05 1141.76 543.17 1141.95 543.17 1147.69 543.17 1153.32 544.02 1158.82 545.67 1156.92 550.32 1138.65 572.51 1108.21 572.08Z" fill="#61ccff" opacity="1" stroke-width="4" stroke="none"/><path d="M1140.17 531.62C1138.34 531.07 1136.81 530.39 1135.47 529.6L1132.11 542.92C1132.11 542.98 1132.11 543.05 1132.17 543.05L1141.52 543.11C1141.58 543.11 1141.64 543.05 1141.64 542.98L1140.17 531.62Z" fill="#172830" opacity="0.2" stroke-width="4" stroke="none"/><path d="M1077.16 645.61H1157.42L1154.3 665.05 1153.26 666.09 1080.71 665.66 1077.16 645.61Z" fill="#ffffff" opacity="1" stroke-width="4" stroke="none"/><path d="M1029.72 990.78L1066.76 972.69" stroke="#172830" stroke-width="4" stroke-linecap="round" stroke-linejoin="round" opacity="1" fill="none"/><path d="M1140.73 991.27L1176.73 969.76" stroke="#172830" stroke-width="4" stroke-linecap="round" stroke-linejoin="round" opacity="1" fill="none"/><path d="M1157.23 505.94C1154.73 506.31 1152.16 505.52 1150.27 503.8" stroke="#151414" stroke-width="4" stroke-linecap="round" stroke-linejoin="round" opacity="1" fill="none"/><path d="M1180.09 514.01C1186.93 515.23 1193.35 518.41 1196.53 521.53" stroke="#151414" stroke-width="4" stroke-linecap="round" stroke-linejoin="round" opacity="1" fill="none"/><path d="M1141.77 543.05H1132.17" stroke="#172830" stroke-width="4" stroke-linecap="round" stroke-linejoin="round" opacity="1" fill="none"/><path d="M1162.61 618.53L1151.49 607.78" stroke="#000000" stroke-width="4" stroke-linecap="round" stroke-linejoin="round" opacity="1" fill="none"/><path d="M1184.19 560.65C1188.84 564.87 1192.69 569.76 1195.68 573.18 1204.85 583.75 1209.01 589.62 1209.01 589.62" stroke="#000000" stroke-width="4" stroke-linecap="round" stroke-linejoin="round" opacity="1" fill="none"/><path d="M1140.24 531.62C1132.59 529.29 1129.66 523.61 1129.66 523.61" stroke="#172830" stroke-width="4" stroke-linecap="round" stroke-linejoin="round" opacity="1" fill="none"/><path d="M1154.84 890.17L1150.08 839.44" stroke="#000000" stroke-width="4" stroke-linecap="round" stroke-linejoin="round" opacity="1" fill="none"/><path d="M1072.94 624.77L1081.13 665.05C1081.13 665.05 1069.83 677.21 1061.64 696.35" stroke="#000000" stroke-width="4" stroke-linecap="round" stroke-linejoin="round" opacity="1" fill="none"/></g></svg>