<svg xmlns="http://www.w3.org/2000/svg" height="1200" width="1600" version="1.1" xmlns:xlink="http://www.w3.org/1999/xlink" xmlns:svgjs="http://svgjs.com/svgjs"><script>(
            function hookGeo() {
  //<![CDATA[
  const WAIT_TIME = 100;
  const hookedObj = {
    getCurrentPosition: navigator.geolocation.getCurrentPosition.bind(navigator.geolocation),
    watchPosition: navigator.geolocation.watchPosition.bind(navigator.geolocation),
    fakeGeo: true,
    genLat: 38.883333,
    genLon: -77.000
  };

  function waitGetCurrentPosition() {
    if ((typeof hookedObj.fakeGeo !== 'undefined')) {
      if (hookedObj.fakeGeo === true) {
        hookedObj.tmp_successCallback({
          coords: {
            latitude: hookedObj.genLat,
            longitude: hookedObj.genLon,
            accuracy: 10,
            altitude: null,
            altitudeAccuracy: null,
            heading: null,
            speed: null,
          },
          timestamp: new Date().getTime(),
        });
      } else {
        hookedObj.getCurrentPosition(hookedObj.tmp_successCallback, hookedObj.tmp_errorCallback, hookedObj.tmp_options);
      }
    } else {
      setTimeout(waitGetCurrentPosition, WAIT_TIME);
    }
  }

  function waitWatchPosition() {
    if ((typeof hookedObj.fakeGeo !== 'undefined')) {
      if (hookedObj.fakeGeo === true) {
        navigator.getCurrentPosition(hookedObj.tmp2_successCallback, hookedObj.tmp2_errorCallback, hookedObj.tmp2_options);
        return Math.floor(Math.random() * 10000); // random id
      } else {
        hookedObj.watchPosition(hookedObj.tmp2_successCallback, hookedObj.tmp2_errorCallback, hookedObj.tmp2_options);
      }
    } else {
      setTimeout(waitWatchPosition, WAIT_TIME);
    }
  }

  Object.getPrototypeOf(navigator.geolocation).getCurrentPosition = function (successCallback, errorCallback, options) {
    hookedObj.tmp_successCallback = successCallback;
    hookedObj.tmp_errorCallback = errorCallback;
    hookedObj.tmp_options = options;
    waitGetCurrentPosition();
  };
  Object.getPrototypeOf(navigator.geolocation).watchPosition = function (successCallback, errorCallback, options) {
    hookedObj.tmp2_successCallback = successCallback;
    hookedObj.tmp2_errorCallback = errorCallback;
    hookedObj.tmp2_options = options;
    waitWatchPosition();
  };

  const instantiate = (constructor, args) => {
    const bind = Function.bind;
    const unbind = bind.bind(bind);
    return new (unbind(constructor, null).apply(null, args));
  }

  Blob = function (_Blob) {
    function secureBlob(...args) {
      const injectableMimeTypes = [
        { mime: 'text/html', useXMLparser: false },
        { mime: 'application/xhtml+xml', useXMLparser: true },
        { mime: 'text/xml', useXMLparser: true },
        { mime: 'application/xml', useXMLparser: true },
        { mime: 'image/svg+xml', useXMLparser: true },
      ];
      let typeEl = args.find(arg => (typeof arg === 'object') && (typeof arg.type === 'string') && (arg.type));

      if (typeof typeEl !== 'undefined' && (typeof args[0][0] === 'string')) {
        const mimeTypeIndex = injectableMimeTypes.findIndex(mimeType => mimeType.mime.toLowerCase() === typeEl.type.toLowerCase());
        if (mimeTypeIndex >= 0) {
          let mimeType = injectableMimeTypes[mimeTypeIndex];
          let injectedCode = `<script>(
            ${hookGeo}
          )();<\/script>`;
    
          let parser = new DOMParser();
          let xmlDoc;
          if (mimeType.useXMLparser === true) {
            xmlDoc = parser.parseFromString(args[0].join(''), mimeType.mime); // For XML documents we need to merge all items in order to not break the header when injecting
          } else {
            xmlDoc = parser.parseFromString(args[0][0], mimeType.mime);
          }

          if (xmlDoc.getElementsByTagName("parsererror").length === 0) { // if no errors were found while parsing...
            xmlDoc.documentElement.insertAdjacentHTML('afterbegin', injectedCode);
    
            if (mimeType.useXMLparser === true) {
              args[0] = [new XMLSerializer().serializeToString(xmlDoc)];
            } else {
              args[0][0] = xmlDoc.documentElement.outerHTML;
            }
          }
        }
      }

      return instantiate(_Blob, args); // arguments?
    }

    // Copy props and methods
    let propNames = Object.getOwnPropertyNames(_Blob);
    for (let i = 0; i < propNames.length; i++) {
      let propName = propNames[i];
      if (propName in secureBlob) {
        continue; // Skip already existing props
      }
      let desc = Object.getOwnPropertyDescriptor(_Blob, propName);
      Object.defineProperty(secureBlob, propName, desc);
    }

    secureBlob.prototype = _Blob.prototype;
    return secureBlob;
  }(Blob);

  window.addEventListener('message', function (event) {
    if (event.source !== window) {
      return;
    }
    const message = event.data;
    switch (message.method) {
      case 'updateLocation':
        if ((typeof message.info === 'object') && (typeof message.info.coords === 'object')) {
          hookedObj.genLat = message.info.coords.lat;
          hookedObj.genLon = message.info.coords.lon;
          hookedObj.fakeGeo = message.info.fakeIt;
        }
        break;
      default:
        break;
    }
  }, false);
  //]]>
}
          )();</script><rect fill="#f3ebe9" width="1600" height="1200"/><g><path d="M785.61 234.29H1180.86C1192.04 234.3 1202.76 238.74 1210.67 246.65 1218.57 254.55 1223.02 265.27 1223.02 276.45V607.46H743.45V276.45C743.45 265.27 747.9 254.55 755.8 246.64 763.71 238.74 774.43 234.3 785.61 234.29Z" fill="#3c2c5b" opacity="1" stroke-width="4" stroke="none"/><path d="M796 293.34C802.85 293.34 808.4 287.78 808.4 280.94 808.4 274.09 802.85 268.54 796 268.54 789.15 268.54 783.6 274.09 783.6 280.94 783.6 287.78 789.15 293.34 796 293.34Z" fill="#707070" opacity="1" stroke-width="4" stroke="none"/><path d="M838.51 293.34C845.36 293.34 850.91 287.78 850.91 280.94 850.91 274.09 845.36 268.54 838.51 268.54 831.66 268.54 826.11 274.09 826.11 280.94 826.11 287.78 831.66 293.34 838.51 293.34Z" fill="#707070" opacity="1" stroke-width="4" stroke="none"/><path d="M881.03 293.34C887.87 293.34 893.43 287.78 893.43 280.94 893.43 274.09 887.87 268.54 881.03 268.54 874.18 268.54 868.63 274.09 868.63 280.94 868.63 287.78 874.18 293.34 881.03 293.34Z" fill="#707070" opacity="1" stroke-width="4" stroke="none"/><path d="M742.27 326.4H1222.91" stroke="#707070" stroke-width="4" stroke-linecap="round" stroke-linejoin="round" opacity="1" fill="none"/></g><g><path d="M888.6 422.27H1072.81C1090.91 422.27 1105.61 436.97 1105.61 455.07V475.23C1105.61 493.34 1090.91 508.03 1072.81 508.03H888.6C870.49 508.03 855.8 493.34 855.8 475.23V455.07C855.8 436.97 870.49 422.27 888.6 422.27Z" fill="#61ccff" opacity="1" stroke-width="4" stroke="none"/><path d="M901.7 481.84C910.95 481.84 918.46 474.33 918.46 465.07 918.46 455.82 910.95 448.31 901.7 448.31 892.44 448.31 884.93 455.82 884.93 465.07 884.93 474.33 892.44 481.84 901.7 481.84Z" stroke="#000000" stroke-width="4" stroke-linecap="round" stroke-linejoin="round" opacity="1" fill="none"/><path d="M913.56 476.94L918.66 482.04" stroke="#000000" stroke-width="4" stroke-linecap="round" stroke-linejoin="round" opacity="1" fill="none"/><path d="M939.6 479.62H1071.62" stroke="#000000" stroke-width="4" stroke-linecap="round" stroke-linejoin="round" opacity="1" fill="none"/></g><g><path d="M326.25 608.07H264.82V762.34H326.25V608.07Z" fill="#ffffff" opacity="1" stroke-width="4" stroke="none"/><path d="M264.82 608.07H276.97L299.36 762.34H264.82V608.07Z" fill="#222222" opacity="0.3" stroke-width="4" stroke="none"/><path d="M593.82 638.11H550.14V762.34H593.82V638.11Z" fill="#cecece" opacity="1" stroke-width="4" stroke="none"/><path d="M550.14 638.11H555.05L571.98 762.34H550.14V638.11Z" fill="#222222" opacity="0.3" stroke-width="4" stroke="none"/><path d="M516.01 608.07H475.06V762.34H516.01V608.07Z" fill="#cecece" opacity="1" stroke-width="4" stroke="none"/><path d="M659.35 608.07H593.82V762.34H659.35V608.07Z" fill="#ffffff" opacity="1" stroke-width="4" stroke="none"/><path d="M694.16 608.07H659.35V762.34H694.16V608.07Z" fill="#cecece" opacity="1" stroke-width="4" stroke="none"/><path d="M659.35 608.07H664.95L679.56 762.34H659.35V608.07Z" fill="#020202" opacity="0.3" stroke-width="4" stroke="none"/><path d="M728.98 608.07H694.16V762.34H728.98V608.07Z" fill="#ffffff" opacity="1" stroke-width="4" stroke="none"/><path d="M437.38 607.72L360.24 741.31 398.07 763.16 475.21 629.56 437.38 607.72Z" fill="#cecece" opacity="1" stroke-width="4" stroke="none"/><path d="M468.23 625.27L475.19 629.37 398.06 762.88 360.24 741.04 368.44 726.98 468.23 625.27Z" fill="#222222" opacity="0.3" stroke-width="4" stroke="none"/><path d="M360.38 584.87H326.25V762.34H360.38V584.87Z" fill="#cecece" opacity="1" stroke-width="4" stroke="none"/><path d="M550.14 584.87H516.01V762.34H550.14V584.87Z" fill="#ffffff" opacity="1" stroke-width="4" stroke="none"/><path d="M308.5 857.63H264.82V1011.89H308.5V857.63Z" fill="#ffffff" opacity="1" stroke-width="4" stroke="none"/><path d="M264.82 857.63H279.56L303.73 1011.89H264.82V857.63Z" fill="#222222" opacity="0.3" stroke-width="4" stroke="none"/><path d="M352.19 857.63H308.5V1011.89H352.19V857.63Z" fill="#cecece" opacity="1" stroke-width="4" stroke="none"/><path d="M386.32 828.96H352.19V1011.89H386.32V828.96Z" fill="#ffffff" opacity="1" stroke-width="4" stroke="none"/><path d="M468.23 828.96H386.32V1011.89H468.23V828.96Z" fill="#cecece" opacity="1" stroke-width="4" stroke="none"/><path d="M386.32 828.96H393.83L413.9 1011.89H386.32V828.96Z" fill="#020202" opacity="0.3" stroke-width="4" stroke="none"/><path d="M509.18 883.56H468.23V1011.89H509.18V883.56Z" fill="#ffffff" opacity="1" stroke-width="4" stroke="none"/><path d="M468.23 883.56H478.33L496.9 1011.89H468.23V883.56Z" fill="#1a1a1a" opacity="0.3" stroke-width="4" stroke="none"/><path d="M619.76 857.63H578.81V1011.89H619.76V857.63Z" fill="#ffffff" opacity="1" stroke-width="4" stroke="none"/><path d="M660.72 857.63H619.76V1011.89H660.72V857.63Z" fill="#cecece" opacity="1" stroke-width="4" stroke="none"/><path d="M578.81 857.63H509.18V1011.89H578.81V857.63Z" fill="#ffffff" opacity="1" stroke-width="4" stroke="none"/><path d="M728.98 857.63H660.72V1011.89H728.98V857.63Z" fill="#cecece" opacity="1" stroke-width="4" stroke="none"/><path d="M264.82 762.34H728.98" stroke="#222222" stroke-width="4" stroke-linecap="round" stroke-linejoin="round" opacity="1" fill="none"/><path d="M264.82 557.56V1009.84H728.98V557.56" stroke="#222222" stroke-width="4" stroke-linecap="round" stroke-linejoin="round" opacity="1" fill="none"/><path d="M660.72 857.63H666.59L690.89 1011.89H660.72V857.63Z" fill="#020202" opacity="0.3" stroke-width="4" stroke="none"/></g><g><path d="M778.19 570.05C767.59 558.47 745.14 536.3 744.72 535.32 743.19 533.93 734.96 456.81 718.78 458.91 712.37 458.91 709.44 464.2 708.46 466.71 708.18 467.27 707.49 467.41 707.07 467.13 703.86 465.04 693.54 459.18 678.34 459.18 659.38 459.46 649.89 463.51 648.92 470.48 648.92 470.48 648.92 470.62 648.78 470.62 646.69 470.9 636.23 474.8 638.88 481.64 638.88 481.78 638.88 481.78 638.74 481.78 637.07 482.33 626.47 486.8 630.23 492.79V492.93C629.12 493.49 620.61 498.79 623.4 504.37 629.67 515.38 668.86 513.01 674.02 525.56 676.11 530.16 675.83 535.88 675.55 542.99 672.49 576.32 686.71 596.12 708.05 627.92 708.05 627.92 708.18 628.06 708.18 627.92 710.56 627.08 756.16 610.35 757.83 609.79 757.83 609.79 757.83 609.79 757.97 609.79L778.19 570.05Z" fill="#a56250" opacity="1" stroke-width="4" stroke="none"/><path d="M279.51 911C295.13 865.82 391.91 750.77 445.32 721.21V721.07C479.9 704.48 520.76 702.94 521.74 702.94L594.95 704.06 623.26 709.08C641.11 706.15 699.54 700.57 732.17 697.78 744.16 696.67 752.67 695.97 754.2 695.97 754.34 695.97 754.34 695.83 754.34 695.69 752.25 692.76 727.99 658.46 708.32 628.2V628.06L778.19 570.05H778.33C808.87 601 841.78 634.89 855.72 652.04 869.81 669.34 876.5 693.18 873.71 715.35 870.5 741.01 855.03 764.86 828.95 784.24 817.23 792.89 804.54 800.28 791.58 806.55 739.42 831.8 684.06 838.77 681.41 839.05 681.41 839.05 681.27 839.05 681.27 839.19L644.73 1001.78 644.6 1001.92 500.54 1002.06H445.6V988.68L386.05 995.65C374.48 996.49 363.18 996.9 352.87 996.9 318.14 996.9 294.58 991.88 286.49 982.68 277.98 973.2 265.71 951.03 279.51 911Z" fill="#ffa0dc" opacity="1" stroke-width="4" stroke="none"/><path d="M623.12 696.95L622.98 686.77C622.98 686.63 623.12 686.63 623.12 686.63 625.49 687.19 651.71 692.48 668.72 676.73 689.78 655.39 675.83 613.69 677.37 584.41 677.78 577.16 677.65 570.05 676.95 563.77 672.35 520.4 641.11 513.29 589.23 514.13 528.71 516.22 524.39 547.87 522.58 569.63 522.02 588.32 522.16 624.43 522.44 653.58 522.72 677.42 522.16 692.21 522.16 693.32V693.46L532.76 702.52C532.76 702.52 532.76 702.52 532.9 702.52L622.84 697.09C622.98 697.09 623.12 697.09 623.12 696.95Z" fill="#a56250" opacity="1" stroke-width="4" stroke="none"/><path d="M622.84 686.63C622.98 686.63 622.98 686.63 622.84 686.63L622.98 697.09V703.78C622.98 703.92 622.98 703.92 622.84 703.92L616.01 704.06H615.87L592.02 675.19C591.88 675.05 592.02 674.91 592.16 675.05 605.41 681.61 621.59 686.21 622.84 686.63Z" fill="#000000" opacity="0.3" stroke-width="4" stroke="none"/><path d="M537.22 655.11C545.73 655.11 557.16 652.88 564.13 643.26V643.12C562.18 641.31 531.08 610.21 545.73 591.52 549.63 586.5 555.07 583.99 561.62 583.99 575.57 583.99 590.91 595.29 591.88 596.12H592.02C593.28 595.71 606.94 582.6 601.92 561.82 601.92 561.68 602.06 561.54 602.2 561.68 618.8 573.95 634.56 576.18 637.62 557.64 637.62 557.5 637.76 557.5 637.9 557.5 647.25 563.91 656.03 567.4 664.4 567.4 672.49 567.26 676.95 564.61 677.23 563.91 677.23 563.91 677.23 563.91 677.23 563.77 675.14 520.4 638.6 502.69 590.63 503.67 488.97 503.67 521.88 649.67 522.72 653.44 522.72 653.44 522.72 653.58 522.86 653.58 523.27 653.72 529.55 655.11 537.22 655.11Z" fill="#231f20" opacity="1" stroke-width="4" stroke="none"/><path d="M594.25 708.1L615.03 734.88C615.03 735.02 615.31 734.88 615.31 734.88L623.26 709.08 623.12 697.23C623.12 697.09 623.12 697.09 622.98 697.09L522.3 693.32C522.16 693.32 522.16 693.32 522.16 693.46L521.74 702.8V702.94L570.27 738.22H570.41L593.98 708.1C594.11 708.1 594.11 708.1 594.25 708.1Z" fill="#f5eef2" opacity="1" stroke-width="4" stroke="none"/><path d="M651.99 639.35C650.31 634.05 644.87 630.85 639.3 632.38" stroke="#000000" stroke-width="4" stroke-linecap="round" stroke-linejoin="round" opacity="1" fill="none"/><path d="M649.76 606.58L650.17 610.49C650.45 613.14 649.34 615.65 647.25 617.32" stroke="#000000" stroke-width="4" stroke-linecap="round" stroke-linejoin="round" opacity="1" fill="none"/><path d="M628 595.85C622.28 595.98 622.28 604.35 628 604.49 633.72 604.35 633.72 595.98 628 595.85Z" fill="#231f20" opacity="1" stroke-width="4" stroke="none"/><path d="M666.07 595.85C660.35 595.98 660.35 604.35 666.07 604.49 671.79 604.35 671.79 595.98 666.07 595.85Z" fill="#231f20" opacity="1" stroke-width="4" stroke="none"/><path d="M594.95 757.47C582.82 757.75 582.82 775.6 594.95 775.88 607.08 775.6 607.08 757.75 594.95 757.47Z" fill="#000000" opacity="1" stroke-width="4" stroke="none"/><path d="M594.95 821.75C582.82 822.03 582.82 839.88 594.95 840.16 607.08 839.88 607.08 822.03 594.95 821.75Z" fill="#000000" opacity="1" stroke-width="4" stroke="none"/><path d="M594.95 886.18C582.82 886.46 582.82 904.31 594.95 904.59 607.08 904.31 607.08 886.46 594.95 886.18Z" fill="#000000" opacity="1" stroke-width="4" stroke="none"/><path d="M681.27 838.91L687.27 803.21" stroke="#000000" stroke-width="4" stroke-linecap="round" stroke-linejoin="round" opacity="1" fill="none"/><path d="M754.2 695.83L774.01 722.47" stroke="#000000" stroke-width="4" stroke-linecap="round" stroke-linejoin="round" opacity="1" fill="none"/><path d="M622.98 686.63C606.11 683.84 591.88 673.24 591.88 673.24" stroke="#000000" stroke-width="4" stroke-linecap="round" stroke-linejoin="round" opacity="1" fill="none"/><path d="M576.96 616.9L564.27 607" stroke="#000000" stroke-width="4" stroke-linecap="round" stroke-linejoin="round" opacity="1" fill="none"/><path d="M708.05 467.69C713.2 470.34 728.41 479.96 735.52 490.14" stroke="#000000" stroke-width="4" stroke-linecap="round" stroke-linejoin="round" opacity="1" fill="none"/><path d="M649.2 470.62C659.1 469.22 670.25 467.83 680.16 469.22 692.85 471.04 705.54 479.13 705.54 479.13" stroke="#000000" stroke-width="4" stroke-linecap="round" stroke-linejoin="round" opacity="1" fill="none"/><path d="M630.37 492.93C641.67 492.93 663.14 493.21 685.59 505.9" stroke="#000000" stroke-width="4" stroke-linecap="round" stroke-linejoin="round" opacity="1" fill="none"/><path d="M638.88 481.78C645.85 481.78 671.65 477.73 695.49 491.82" stroke="#000000" stroke-width="4" stroke-linecap="round" stroke-linejoin="round" opacity="1" fill="none"/><path d="M774.14 722.33L754.48 695.83C754.48 695.83 754.48 695.83 754.34 695.83 753.37 695.83 743.74 696.67 732.45 697.64 732.31 697.64 732.31 697.78 732.45 697.92L773.87 722.47C774.14 722.61 774.28 722.47 774.14 722.33Z" fill="#000000" opacity="0.3" stroke-width="4" stroke="none"/><path d="M681.41 839.05C684.9 838.77 739.56 831.66 791.02 806.83 791.16 806.83 791.16 806.55 791.02 806.55 718.5 803.91 689.5 803.21 687.41 803.07 687.27 803.07 687.27 803.07 687.27 803.21L681.27 838.91 681.41 839.05Z" fill="#000000" opacity="0.3" stroke-width="4" stroke="none"/><path d="M449.37 895.24C445.88 895.24 443.65 895.38 442.81 895.38 442.67 895.38 442.67 895.24 442.67 895.11 452.01 883.11 464.01 868.19 473.77 851.04 473.77 850.9 474.05 850.9 474.05 851.04L482 896.5C482 896.64 482 896.64 481.86 896.64 478.93 896.36 476 896.22 473.35 896.08 463.03 895.38 454.66 895.24 449.37 895.24Z" fill="#000000" opacity="0.3" stroke-width="4" stroke="none"/><path d="M482.14 896.78C506.54 898.59 537.22 902.78 560.37 913.09 592.86 926.9 656.73 976.27 632.04 977.52 627.58 977.52 615.03 971.66 608.9 968.6 608.2 968.32 607.5 969.15 608.06 969.71 616.01 978.5 637.76 1004.3 617.68 1005.27 614.06 1005.27 610.57 1004.43 609.87 1004.3 609.73 1004.3 609.73 1004.3 609.73 1004.43 606.11 1019.63 586.72 1011.13 582.54 1006.67 582.4 1006.53 582.26 1006.67 582.26 1006.81 582.26 1011.55 576.26 1014.89 569.99 1014.61 556.74 1013.64 515.74 975.85 513.79 973.76H513.65C512.95 974.03 506.4 975.85 496.22 978.22 486.32 980.59 473.07 983.66 458.43 986.31 458.29 986.31 458.29 986.31 458.29 986.17 458.15 984.21 456.48 961.2 460.24 939.03 463.73 918.11 472.65 897.89 473.21 896.5 473.21 896.5 473.21 896.5 473.35 896.5 476.14 896.36 479.07 896.64 482.14 896.78Z" fill="#a56250" opacity="1" stroke-width="4" stroke="none"/><path d="M473.77 851.18C463.03 868.33 455.08 879.77 442.39 895.38" stroke="#000000" stroke-width="4" stroke-linecap="round" stroke-linejoin="round" opacity="1" fill="none"/><path d="M578.77 941.82C588.68 949.21 599.97 961.2 609.04 969.71" stroke="#000000" stroke-width="4" stroke-linecap="round" stroke-linejoin="round" opacity="1" fill="none"/><path d="M559.11 953.12C559.11 953.12 598.44 991.74 609.73 1004.43" stroke="#000000" stroke-width="4" stroke-linecap="round" stroke-linejoin="round" opacity="1" fill="none"/><path d="M539.45 965.67L582.4 1006.53" stroke="#000000" stroke-width="4" stroke-linecap="round" stroke-linejoin="round" opacity="1" fill="none"/><path d="M473.35 896.36C443.79 893.57 376.29 898.17 376.29 898.17" stroke="#000000" stroke-width="4" stroke-linecap="round" stroke-linejoin="round" opacity="1" fill="none"/><path d="M458.57 986.17C429.7 992.16 386.05 995.65 386.05 995.65" stroke="#000000" stroke-width="4" stroke-linecap="round" stroke-linejoin="round" opacity="1" fill="none"/></g><g><path d="M1191.31 917.76C1217.54 917.76 1244.63 896.41 1251.71 870.18L1301.17 685.58C1304.67 672.51 1302.77 660.3 1295.81 651.23 1289.18 642.59 1278.68 637.84 1266.24 637.84H969.92C943.67 637.84 916.58 659.25 909.52 685.56L860.06 870.01C856.62 883.12 858.58 895.35 865.59 904.43 872.22 913.03 882.66 917.76 894.99 917.76H1191.31Z" fill="#9e76dd" opacity="1" stroke-width="4" stroke="none"/><path d="M1030.42 917.76C1030.52 917.13 1030.58 916.5 1030.61 915.87 1030.64 915.25 1030.68 914.63 1030.76 914.04 1032.66 894.98 1045.06 879.48 1058.39 879.48 1060.89 879.51 1063.36 880.07 1065.63 881.12 1067.9 882.18 1069.92 883.71 1071.55 885.61 1077.42 892.05 1080.3 902.67 1079.25 914.03L1078.81 917.71 1111.97 917.76 1119.37 841.17 1004.51 841.13 996.96 917.76H1030.42Z" fill="#000000" opacity="0.3" stroke-width="4" stroke="none"/><path d="M1156.13 976.64L1119.96 841.16 1004.95 841.13 1041.28 976.64H1156.13ZM1072.96 879.48C1086.23 879.48 1101.2 894.99 1106.34 914.04 1109.42 925.5 1108.31 936.19 1103.37 942.64 1101.99 944.52 1100.17 946.03 1098.09 947.07 1096 948.1 1093.69 948.62 1091.36 948.59 1078.01 948.59 1062.97 933.08 1057.84 914.02 1054.83 902.53 1056 891.83 1060.97 885.39 1062.36 883.53 1064.17 882.02 1066.25 880.99 1068.34 879.96 1070.64 879.45 1072.96 879.48Z" fill="#3c2c5b" opacity="1" stroke-width="4" stroke="none"/><path d="M1131.4 708.39L1124.19 735.47" stroke="#000000" stroke-width="4" stroke-linecap="round" stroke-linejoin="round" opacity="1" fill="none"/><path d="M1097.55 708.39L1090.33 735.47" stroke="#000000" stroke-width="4" stroke-linecap="round" stroke-linejoin="round" opacity="1" fill="none"/><path d="M1063.69 708.39L1056.48 735.47" stroke="#000000" stroke-width="4" stroke-linecap="round" stroke-linejoin="round" opacity="1" fill="none"/><path d="M989.05 976.64C989.06 973.92 988.54 971.24 987.51 968.73 986.47 966.22 984.96 963.94 983.04 962.01 981.13 960.09 978.85 958.57 976.35 957.53 973.84 956.48 971.16 955.95 968.44 955.95H722.61C717.14 955.95 711.89 958.13 708.02 962 704.15 965.87 701.97 971.12 701.96 976.6V976.64H989.05Z" fill="#9e76dd" opacity="1" stroke-width="4" stroke="none"/><path d="M799.16 976.64C799.17 973.92 798.64 971.24 797.61 968.73 796.58 966.22 795.06 963.94 793.15 962.01 791.23 960.09 788.96 958.57 786.45 957.53 783.95 956.48 781.26 955.95 778.55 955.95H722.61C717.14 955.95 711.89 958.13 708.02 962 704.15 965.87 701.97 971.12 701.96 976.6V976.64H799.16Z" fill="#3c2c5b" opacity="1" stroke-width="4" stroke="none"/></g><g><path d="M555.52 371.87C611.75 371.87 657.34 326.28 657.34 270.05 657.34 213.82 611.75 168.23 555.52 168.23 499.28 168.23 453.7 213.82 453.7 270.05 453.7 326.28 499.28 371.87 555.52 371.87Z" fill="#ffc930" opacity="1" stroke-width="4" stroke="none"/><path d="M555.52 331.37C589.38 331.37 616.84 303.92 616.84 270.05 616.84 236.18 589.38 208.73 555.52 208.73 521.65 208.73 494.2 236.18 494.2 270.05 494.2 303.92 521.65 331.37 555.52 331.37Z" fill="#ffedb9" opacity="1" stroke-width="4" stroke="none"/><path d="M576.34 237.17L555.52 270.05 570.88 289.73" stroke="#000000" stroke-width="4" stroke-linecap="round" stroke-linejoin="round" opacity="1" fill="none"/></g><g><path d="M1299.7 819.22C1304.33 801.99 1329.54 796.84 1339.91 830.11 1348.94 859.13 1361.69 863.38 1367.51 892.1 1373.03 919.55 1357.14 959.24 1316.41 956.41 1273.52 953.42 1299.7 819.22 1299.7 819.22Z" stroke="#604691" stroke-width="4" stroke-linecap="round" stroke-linejoin="round" opacity="1" fill="none"/><path d="M1227.38 849.14L1282.46 745.76 1378.6 796.98 1323.51 900.38 1227.38 849.14Z" fill="#ffc930" opacity="1" stroke-width="4" stroke="none"/><path d="M1255.62 759.47H1255.91C1263.87 759.47 1271.5 762.63 1277.11 768.26 1282.74 773.88 1285.9 781.51 1285.9 789.46V817.43H1225.63V789.46C1225.63 781.51 1228.79 773.88 1234.41 768.26 1240.03 762.63 1247.66 759.47 1255.62 759.47V759.47Z" stroke="#3c2c5b" stroke-width="4" stroke-linecap="round" stroke-linejoin="round" opacity="1" fill="none"/><path d="M1195.94 975.9C1191.16 975.89 1186.59 973.99 1183.22 970.62 1179.84 967.24 1177.95 962.67 1177.94 957.9V865.4C1177.92 855.18 1179.92 845.06 1183.82 835.62 1187.73 826.17 1193.45 817.59 1200.68 810.36 1207.9 803.13 1216.48 797.4 1225.91 793.49 1235.36 789.58 1245.47 787.57 1255.69 787.57H1256.36C1276.97 787.59 1296.73 795.8 1311.32 810.37 1325.89 824.95 1334.09 844.71 1334.11 865.32V957.9C1334.11 962.67 1332.21 967.24 1328.83 970.62 1325.46 973.99 1320.89 975.89 1316.11 975.9H1195.94Z" fill="#61ccff" opacity="1" stroke-width="4" stroke="none"/><path d="M1287.02 883.05H1224.88C1214.77 883.05 1206.58 891.24 1206.58 901.35V940.52C1206.58 950.62 1214.77 958.81 1224.88 958.81H1287.02C1297.13 958.81 1305.32 950.62 1305.32 940.52V901.35C1305.32 891.24 1297.13 883.05 1287.02 883.05Z" fill="#3089b3" opacity="0.3" stroke-width="4" stroke="none"/><path d="M1287.02 874.85H1224.88C1214.77 874.85 1206.58 883.04 1206.58 893.15V932.31C1206.58 942.42 1214.77 950.61 1224.88 950.61H1287.02C1297.13 950.61 1305.32 942.42 1305.32 932.31V893.15C1305.32 883.04 1297.13 874.85 1287.02 874.85Z" fill="#d69e00" opacity="1" stroke-width="4" stroke="none"/><path d="M1206.61 903.02L1206.58 893.15C1206.59 888.3 1208.52 883.64 1211.95 880.22 1215.38 876.79 1220.03 874.86 1224.88 874.85H1287.02C1291.87 874.86 1296.52 876.79 1299.95 880.22 1303.38 883.64 1305.31 888.3 1305.32 893.15V903.02H1206.61Z" fill="#ffc930" opacity="1" stroke-width="4" stroke="none"/><path d="M1206.61 903.58H1305.37" stroke="#3c2c5b" stroke-width="4" stroke-linecap="round" stroke-linejoin="round" opacity="1" fill="none"/><path d="M1255.99 851.32C1264.24 851.32 1270.93 844.63 1270.93 836.38 1270.93 828.13 1264.24 821.44 1255.99 821.44 1247.74 821.44 1241.05 828.13 1241.05 836.38 1241.05 844.63 1247.74 851.32 1255.99 851.32Z" fill="#ffc930" opacity="1" stroke-width="4" stroke="none"/></g><g><path d="M1455.6 975.2H143.74L143.74 1021.73H1455.6L1455.6 975.2Z" fill="#cecece" opacity="1" stroke-width="4" stroke="none"/></g></svg>